<mxfile host="app.diagrams.net" modified="2022-11-27T10:45:21.094Z" agent="5.0 (Macintosh; Intel Mac OS X 10_15_7) AppleWebKit/537.36 (KHTML, like Gecko) Chrome/107.0.0.0 Safari/537.36" version="20.6.0" etag="SbJV4fTAoSzRfJaKM4jO" type="github">
  <diagram id="hAx2Hl-BltRxzDpdm66S" name="第 1 页">
    <mxGraphModel dx="1186" dy="764" grid="1" gridSize="10" guides="1" tooltips="1" connect="1" arrows="1" fold="1" page="1" pageScale="1" pageWidth="827" pageHeight="1169" math="0" shadow="0">
      <root>
        <mxCell id="0" />
        <mxCell id="1" parent="0" />
        <mxCell id="5aanb437-74j5P1rUgna-2" value="" style="rounded=0;whiteSpace=wrap;html=1;strokeColor=#d79b00;fillColor=#ffe6cc;" vertex="1" parent="1">
          <mxGeometry x="40" y="200" width="150" height="380" as="geometry" />
        </mxCell>
        <mxCell id="5aanb437-74j5P1rUgna-14" value="" style="rounded=0;whiteSpace=wrap;html=1;dashed=1;" vertex="1" parent="1">
          <mxGeometry x="47.5" y="210" width="135" height="220" as="geometry" />
        </mxCell>
        <mxCell id="5aanb437-74j5P1rUgna-15" value="结构化数据&lt;br&gt;Structured Data" style="rounded=0;whiteSpace=wrap;html=1;fillColor=#fff2cc;strokeColor=#d6b656;fontColor=#666666;" vertex="1" parent="1">
          <mxGeometry x="55" y="220" width="120" height="60" as="geometry" />
        </mxCell>
        <mxCell id="5aanb437-74j5P1rUgna-16" value="半结构化数据&lt;br&gt;Semi-Structured Data" style="rounded=0;whiteSpace=wrap;html=1;fillColor=#fff2cc;strokeColor=#d6b656;fontColor=#666666;" vertex="1" parent="1">
          <mxGeometry x="55" y="290" width="120" height="60" as="geometry" />
        </mxCell>
        <mxCell id="5aanb437-74j5P1rUgna-17" value="半结构化数据&lt;br&gt;Unstructured Data" style="rounded=0;whiteSpace=wrap;html=1;fillColor=#fff2cc;strokeColor=#d6b656;fontColor=#666666;" vertex="1" parent="1">
          <mxGeometry x="55" y="360" width="120" height="60" as="geometry" />
        </mxCell>
        <mxCell id="5aanb437-74j5P1rUgna-18" value="&amp;nbsp;数据预处理&lt;br&gt;Data Pre-Processing" style="rounded=0;whiteSpace=wrap;html=1;fillColor=#fff2cc;strokeColor=#d6b656;fontColor=#666666;" vertex="1" parent="1">
          <mxGeometry x="50" y="461" width="130" height="60" as="geometry" />
        </mxCell>
        <mxCell id="5aanb437-74j5P1rUgna-19" value="数据采集&lt;br&gt;Data Acquisition" style="text;html=1;strokeColor=none;fillColor=none;align=center;verticalAlign=middle;whiteSpace=wrap;rounded=0;dashed=1;fontColor=#808080;fontStyle=1" vertex="1" parent="1">
          <mxGeometry x="55" y="546" width="115" height="30" as="geometry" />
        </mxCell>
        <mxCell id="5aanb437-74j5P1rUgna-24" value="" style="shape=flexArrow;endArrow=classic;html=1;rounded=0;endWidth=10;endSize=4.38;strokeColor=#666666;" edge="1" parent="1">
          <mxGeometry width="50" height="50" relative="1" as="geometry">
            <mxPoint x="114.5" y="434" as="sourcePoint" />
            <mxPoint x="115" y="459" as="targetPoint" />
          </mxGeometry>
        </mxCell>
        <mxCell id="5aanb437-74j5P1rUgna-27" value="" style="rounded=0;whiteSpace=wrap;html=1;strokeColor=#d79b00;fillColor=#ffe6cc;" vertex="1" parent="1">
          <mxGeometry x="230" y="200" width="150" height="380" as="geometry" />
        </mxCell>
        <mxCell id="5aanb437-74j5P1rUgna-33" value="知识获取&lt;br&gt;Knowledge Acquisition" style="text;html=1;strokeColor=none;fillColor=none;align=center;verticalAlign=middle;whiteSpace=wrap;rounded=0;dashed=1;fontColor=#808080;fontStyle=1" vertex="1" parent="1">
          <mxGeometry x="237.5" y="546" width="135" height="30" as="geometry" />
        </mxCell>
        <mxCell id="5aanb437-74j5P1rUgna-35" value="实体提取&lt;br&gt;Entity Extraction" style="rounded=0;whiteSpace=wrap;html=1;fillColor=#fff2cc;strokeColor=#d6b656;fontColor=#666666;" vertex="1" parent="1">
          <mxGeometry x="240" y="220" width="130" height="80" as="geometry" />
        </mxCell>
        <mxCell id="5aanb437-74j5P1rUgna-36" value="属性提取&lt;br&gt;Attribute Extraction" style="rounded=0;whiteSpace=wrap;html=1;fillColor=#fff2cc;strokeColor=#d6b656;fontColor=#666666;" vertex="1" parent="1">
          <mxGeometry x="240" y="330" width="130" height="80" as="geometry" />
        </mxCell>
        <mxCell id="5aanb437-74j5P1rUgna-37" value="关系提取&lt;br&gt;Relationship Extraction" style="rounded=0;whiteSpace=wrap;html=1;fillColor=#fff2cc;strokeColor=#d6b656;fontColor=#666666;" vertex="1" parent="1">
          <mxGeometry x="240" y="442" width="130" height="79" as="geometry" />
        </mxCell>
        <mxCell id="5aanb437-74j5P1rUgna-38" value="" style="rounded=0;whiteSpace=wrap;html=1;strokeColor=#d79b00;fillColor=#ffe6cc;" vertex="1" parent="1">
          <mxGeometry x="420" y="200" width="150" height="380" as="geometry" />
        </mxCell>
        <mxCell id="5aanb437-74j5P1rUgna-39" value="知识融合&lt;br&gt;Knowledge Fusion" style="text;html=1;strokeColor=none;fillColor=none;align=center;verticalAlign=middle;whiteSpace=wrap;rounded=0;dashed=1;fontColor=#808080;fontStyle=1" vertex="1" parent="1">
          <mxGeometry x="435" y="546" width="125" height="30" as="geometry" />
        </mxCell>
        <mxCell id="5aanb437-74j5P1rUgna-40" value="知识融合&lt;br&gt;Knowledge Fusion" style="rounded=0;whiteSpace=wrap;html=1;fillColor=#fff2cc;strokeColor=#d6b656;fontColor=#666666;" vertex="1" parent="1">
          <mxGeometry x="430" y="220" width="130" height="110" as="geometry" />
        </mxCell>
        <mxCell id="5aanb437-74j5P1rUgna-43" value="" style="rounded=0;whiteSpace=wrap;html=1;strokeColor=#d79b00;fillColor=#ffe6cc;" vertex="1" parent="1">
          <mxGeometry x="610" y="200" width="150" height="380" as="geometry" />
        </mxCell>
        <mxCell id="5aanb437-74j5P1rUgna-44" value="知识加工&lt;br&gt;Knowledge Processing" style="text;html=1;strokeColor=none;fillColor=none;align=center;verticalAlign=middle;whiteSpace=wrap;rounded=0;dashed=1;fontColor=#808080;fontStyle=1" vertex="1" parent="1">
          <mxGeometry x="617.5" y="546" width="135" height="30" as="geometry" />
        </mxCell>
        <mxCell id="5aanb437-74j5P1rUgna-45" value="知识推理&lt;br&gt;Knowledge Inference" style="rounded=0;whiteSpace=wrap;html=1;fillColor=#fff2cc;strokeColor=#d6b656;fontColor=#666666;" vertex="1" parent="1">
          <mxGeometry x="620" y="220" width="130" height="80" as="geometry" />
        </mxCell>
        <mxCell id="5aanb437-74j5P1rUgna-46" value="质量评估&lt;br&gt;Quality Evaluation" style="rounded=0;whiteSpace=wrap;html=1;fillColor=#fff2cc;strokeColor=#d6b656;fontColor=#666666;" vertex="1" parent="1">
          <mxGeometry x="620" y="333" width="130" height="80" as="geometry" />
        </mxCell>
        <mxCell id="5aanb437-74j5P1rUgna-47" value="本体提取&lt;br&gt;Ontology Extraction" style="rounded=0;whiteSpace=wrap;html=1;fillColor=#fff2cc;strokeColor=#d6b656;fontColor=#666666;" vertex="1" parent="1">
          <mxGeometry x="620" y="442" width="130" height="79" as="geometry" />
        </mxCell>
        <mxCell id="5aanb437-74j5P1rUgna-48" value="" style="rounded=0;whiteSpace=wrap;html=1;dashed=1;" vertex="1" parent="1">
          <mxGeometry x="427.5" y="370" width="135" height="151" as="geometry" />
        </mxCell>
        <mxCell id="5aanb437-74j5P1rUgna-49" value="共指解析&lt;br&gt;Coreference Resolution" style="rounded=0;whiteSpace=wrap;html=1;fillColor=#fff2cc;strokeColor=#d6b656;fontColor=#666666;" vertex="1" parent="1">
          <mxGeometry x="435" y="382" width="120" height="60" as="geometry" />
        </mxCell>
        <mxCell id="5aanb437-74j5P1rUgna-50" value="实体消歧&lt;br&gt;Entity Disambiguation" style="rounded=0;whiteSpace=wrap;html=1;fillColor=#fff2cc;strokeColor=#d6b656;fontColor=#666666;" vertex="1" parent="1">
          <mxGeometry x="435" y="451.5" width="120" height="60" as="geometry" />
        </mxCell>
        <mxCell id="5aanb437-74j5P1rUgna-52" value="" style="shape=flexArrow;endArrow=classic;html=1;rounded=0;endWidth=10;endSize=4.38;strokeColor=#666666;" edge="1" parent="1">
          <mxGeometry width="50" height="50" relative="1" as="geometry">
            <mxPoint x="494.5" y="336" as="sourcePoint" />
            <mxPoint x="495" y="361" as="targetPoint" />
          </mxGeometry>
        </mxCell>
        <mxCell id="5aanb437-74j5P1rUgna-54" value="" style="html=1;shadow=0;dashed=0;align=center;verticalAlign=middle;shape=mxgraph.arrows2.arrow;dy=0.6;dx=21;notch=0;strokeColor=#d6b656;fillColor=#fff2cc;" vertex="1" parent="1">
          <mxGeometry x="770" y="370" width="30" height="40" as="geometry" />
        </mxCell>
        <mxCell id="5aanb437-74j5P1rUgna-55" value="" style="html=1;shadow=0;dashed=0;align=center;verticalAlign=middle;shape=mxgraph.arrows2.arrow;dy=0.6;dx=21;notch=0;strokeColor=#d6b656;fillColor=#fff2cc;" vertex="1" parent="1">
          <mxGeometry x="575" y="370" width="30" height="40" as="geometry" />
        </mxCell>
        <mxCell id="5aanb437-74j5P1rUgna-56" value="" style="html=1;shadow=0;dashed=0;align=center;verticalAlign=middle;shape=mxgraph.arrows2.arrow;dy=0.6;dx=21;notch=0;strokeColor=#d6b656;fillColor=#fff2cc;" vertex="1" parent="1">
          <mxGeometry x="384" y="370" width="30" height="40" as="geometry" />
        </mxCell>
        <mxCell id="5aanb437-74j5P1rUgna-57" value="" style="html=1;shadow=0;dashed=0;align=center;verticalAlign=middle;shape=mxgraph.arrows2.arrow;dy=0.6;dx=21;notch=0;strokeColor=#d6b656;fillColor=#fff2cc;" vertex="1" parent="1">
          <mxGeometry x="195" y="370" width="30" height="40" as="geometry" />
        </mxCell>
        <mxCell id="5aanb437-74j5P1rUgna-58" value="&lt;font color=&quot;#666666&quot;&gt;第三方知识库&lt;br&gt;Third KB&lt;/font&gt;" style="shape=cylinder3;whiteSpace=wrap;html=1;boundedLbl=1;backgroundOutline=1;size=15;fillColor=#e1d5e7;strokeColor=#9673a6;" vertex="1" parent="1">
          <mxGeometry x="414" y="90" width="162" height="80" as="geometry" />
        </mxCell>
        <mxCell id="5aanb437-74j5P1rUgna-59" value="" style="html=1;shadow=0;dashed=0;align=center;verticalAlign=middle;shape=mxgraph.arrows2.arrow;dy=0.6;dx=21;notch=0;rotation=90;strokeColor=#d6b656;fillColor=#fff2cc;" vertex="1" parent="1">
          <mxGeometry x="482.5" y="173" width="30" height="40" as="geometry" />
        </mxCell>
        <mxCell id="5aanb437-74j5P1rUgna-60" value="" style="shape=cylinder3;whiteSpace=wrap;html=1;boundedLbl=1;backgroundOutline=1;size=15;strokeColor=#FFCC99;strokeWidth=8;" vertex="1" parent="1">
          <mxGeometry x="811.99" y="248" width="168.01" height="182" as="geometry" />
        </mxCell>
        <mxCell id="5aanb437-74j5P1rUgna-63" value="" style="shape=image;verticalLabelPosition=bottom;labelBackgroundColor=default;verticalAlign=top;aspect=fixed;imageAspect=0;image=data:image/png,iVBORw0KGgoAAAANSUhEUgAAAggAAAF2CAYAAAALPGBPAAAAAXNSR0IArs4c6QAAIABJREFUeF7sXQW4VUXbXadvcrl0d6d0SIuBioGA2Njx25ifigWK9SnYhZ2IkvoJUkp3d3dzO07t/1mDR8l7au8T977zPOdBYfbEmtl71rxp0jRNgxRBQBAQBAQBQUAQEAROQMAkBEH2gyAgCAgCgoAgIAicioAQBNkTgoAgIAgIAoKAIHAaAkIQZFMIAoKAICAICAKCgBAE2QOCgCAgCAgCgoAg4B8BkSD4x0hqCAKCgCAgCAgCJQ4BIQglbsllwoKAICAICAKCgH8EhCD4x0hqCAKCgCAgCAgCJQ4BIQglbsllwoKAICAICAKCgH8EhCD4x0hqCAKCgCAgCAgCJQ4BIQglbsllwoKAICAICAKCgH8EhCD4x0hqCAKCgCAgCAgCJQ4BIQglbsllwoKAICAICAKCgH8EhCD4x0hqCAKCgCAgCAgCJQ4BIQglbsllwoKAICAICAKCgH8EhCD4x0hqCAKCgCAgCAgCJQ4BIQglbsllwoKAICAICAKCgH8EhCD4x0hqCAKCgCAgCAgCJQ4BIQglbsllwoKAICAICAKCgH8EhCD4x0hqCAKCgCAgCAgCJQ4BIQglbsllwoKAICAICAKCgH8EhCD4x0hqCAKCgCAgCAgCJQ4BIQglbsllwoKAICAICAKCgH8EhCD4x0hqCAKCgCAgCAgCJQ4BIQglbsllwoKAICAICAKCgH8EhCD4x0hqCAKCgCAgCAgCJQ4BIQglbsllwoKAICAICAKCgH8EhCD4x0hqCAJ+EdCgodCdg0znfmQ7D0PTPLCYbUixlUUpeyU4LEkwmcx+25EKgoAgIAjECgJCEGJlJWQccYkAiUFm4X6sPPwbNmfMg9ObCw1eABoAE8ywIMFSCg3Su6JF2YuRZEuDyWSKy7nKoAUBQaBkISAEoWStt8xWRwTyXJlYd3Q6lh+egFzXMb8Hv8OSgnYVB6JhejckWdN0HIk0JQgIAoKA/ggIQdAfU2mxBCBwNH835u3/GtuzFsMLT8AztpocqJPWAd2q3opEa6mAn5OKgoAgIAhEGgEhCJFGXPqLewQK3DmYsvMt7Mhe+rcqIfgpVUlqgr61n4LdmhT8w/KEICAICAIRQEAIQgRAli6KDwIerxvz93+DZYfGg/YH4ZQ25a9C+0oDYTXbw2lGnhUEBAFBwBAEhCAYAqs0WlwR2JG1DJO3j4BHc4Y9xVRbeVxYYwgqpzQMuy1pQBAQBAQBvREQgqA3otJesUXA7XVi0rYR2JWzTLc5nlPuMnSterNu7UlDgoAgIAjohYAQBL2QlHaKPQIH87Zg8rYRyHEf1m2upWyVcG3Dt2CzOHRrUxoSBAQBQUAPBIQg6IGitFEiEFh/dBZm7PkAbm+BbvNlpIQB9UagYnJ93dqUhgQBQUAQ0AMBIQh6oChtFHsEGPxoyYFxykDxeCAkfYqmaehZ7R40L3eBPg1KK4KAICAI6ISAEASdgJRmijcCXs2LBfu/x+KDP4Xs2nhmhDR0rHgd2lUaULwBlNkJAoJA3CEgBCHulkwGHA0ESBAW7v8Biw6O0ZUgUIJwbuUb0aZiv2hMS/oUBAQBQeCsCAhBkM0hCASAAGMerDg0GXP2fQ6vFnjkRH9NkyD0qfUo6pc+119V+XdBQBAQBCKKgBCEiMItncUzAlszF+KPnaNQ6M3VbRoWkx3XNhiJ0gmVdGtTGhIEBAFBQA8EhCDogaK0USIQYNbGCVuHIcO5R7f5VkxqiP51h8NstujWpjQkCAgCgoAeCAhB0ANFaaNEIKBpXszc/RFWH/1dl/kyFXSXKjejZflLdGlPGgkAAY8XWqEHWq4LyCiA91gBUOBmZm4g0QZz2USglAPmZBtgtwBmSc0dAKpSpZgiIAShmC6sTMsYBI4V7MX4rc8h23Uo7A4qJtbHBTUeQumEymG3JQ0UjYDm9MC74Qi8Kw5C23QU2vZMIKMQmseLf1JqmACTzQyUTYKpdhrMjcrCfE5FmGuVBixCFGSPlTwEhCCUvDWXGYeBAI0Kt2TMx9Tdo8IKmMQASRdUfxD108+FyWQOY0TyaJEIaBq82zLg/nYNtHVHgGwn4AkwyZbVDJR2wNymEixXN4G5QvJxSYMUQaCEICAEoYQstExTPwScrgL8tf1rbMidCo8p+KRNNlMi2lUciFYVLoNZyIF+C3NKS1q+C54ZO+D5ejWQGfw6/dOcpgFVU2G5pQUsbSvDZBN7EcMWTRqOKQSEIMTUcshgYh0Bt9uNP//8E7v2bUPdLolYnz0F+Z7MgIbNc6aUvTxalb8czcv1EXIQEGqhVfIezIX7h3XQ/tgOuHWKfJlqh/myerD2rQ9TquTOCG1l5Kl4QkAIQjytlow1qggUFBTg559/xpQpU9CsWTPcedcdyDMdwLz932J3zkpoYHyEM8ugzbCiWkozdK58A8ok1oDFZI3qXIpz51qOE663F0ObtydwdUKggFjNMPetC+v1zWBKsAX6lNTTCQEqh6jm8ymJ+Lapn0l0PzpBfFIzQhCMQPXvNr0aUODVkOsG8j0a3H/varsZSLKYkGQBHGYTZG8buAg6Nr1p0yZ8/PHH2LNnjyII9957L1JTU+HxurAnZw02ZsxBRuEeFHiywE8YvRQclhSUTayBhqW7oXJKY5hEia3jipzelFbohnv0Cngnb/nX+FDvHu1mpW6wXlJfvBz0xvaU9lxeDQcKNWzN9WBdthdrsj3YmOPFwUJN2Y2WsZvQKMWMpqUsaJxiRu1kCyo4TLCL94kuKyMEQRcYT26EZGBNlgfTDrmxNtuDfQUaDjk1FPxtMF3KakJ5O1A1wYxWpS3oVc6KeslmWGRTG7Aa+jVZWFiId955BxkZGejRowc6d+6MxMTEfzrgzcbtLUSBJ0cldDKbLEiwpIDBkOSGo986nLUljxfucRvh+XwldMyndebuUmywPtIBlnZVIjCxkteF06thaYYHP+xxYv4xD1ZneZFTRABTyg+SLUCzVAu6lrWgf1Ub2qRZ5Jsa5tYRghAmgCc+7tU0zD3qxgvrC7Eow4NcD+AqwmCam5rShBQLcGEFK4Y2TED9FIu4Xuu4Jno2RQnCyJEjccstt6Bly5Ywm81y8OsJcJhteTYegfvlecDBvDBbCvDxGqmwD+sBE2MnSNEFAdrpZLm9eH59Ib7c5cQxV/BcjyakqVbgmmo2PNcwARUSxEso1MURghAqcic859E0bMj24J1tTny6wwmnFpo+rLLDhIfr2nFDdbva1KG1osOEpInTEPB6vRg3bhxWrlyJp59+Glar2BDE1DZxe+H6bAW8EzYD1O1FoljNsNzYDNYrG4qqQQe8qU6YfcSNB1cVYGWWh4YFYbXKpzulm/FykwScW9YmoSxCQFMIQgignfgIxcq/HXBh6PpCLMv0hi3ZtJqAC8tblDShXbo13HckzNnJ4z4EsrKy8MYbb6BXr17o3r27ABNjCHgP5MD1xMzISQ/+nr+paTnY/tMZptIJMYZIfA2H0tevdznx/IZCbMv71whRj1nUTDThmYYOdfES24TgEBWCEBxeJ9XmPWXiXieuX5qPbP0S/CnJQfNUE8a0S0IDysqkRB2BBQsWKAnCww8/jPLly0d9PDKAkxFwT9oE93vLIk+oHWZYX+wOS1PZE6HuSX5Hf9xTiMFLC5SdlhEl3Qq82yIRV1eziwo3CICFIAQB1olVqVb4bb8LtyzPx6EwYrAU1X27NDO+bpMoJCHENdLrMRonDhs2DI0aNcLVV18t6gW9gNWpHYZLdj46HdhwVKcWg2vG3L8hbDe3DO4hqa0QoOTgj4NuXL80z7DvqA/qukkmfNU6CZ3KyqUr0O0nBCFQpE6ptynHg2sW5WFplvcfn9wQmyrysUsqWPBpqyRUFEMbI+ANqM1Fixbho48+wpAhQxRJkBJbCHgP58F5x28wFeooxgtmig3SYX+jN0zihRQMaqrunnwvrluShz+PeAz9jvoG1jbNjEkdk+V7GuBKCUEIEKgTq5H1Dl6ah692u0N4OrhH6OUwvLEDD9VNECOb4KDTpbbT6VSeCy6XC48//jgsFgmzqwuwOjbiWXUQrsdnRM+jJNkK22eXwpxs13FWJaApTcPwjYV4Zn1hRMiBQlTT8EAdO95oniTf0wC2mBCEAEA6tcrk/S5cuTCvSBfGEJo96yO0R5jYMRk1GVlJSkQR2LBhA95//33cdtttKjiSlNhDwDN9O9yvLwjb6j3UmWkWE+wfXgRz5dRQmyiRz23O8aDjnzk44ors9Gm0OLZ9EtqUFlWDP+SFIPhD6JR/z3Jp6LcgF9OORE6cSVrwUhMHHqvP+O/huf4EOd0SXZ2ujWPHjsWWLVvwyCOPiO1BjO4GGih63lsaPYKgabC/eyHMtUvHKEKxNyx6og5ZlY+3thlkwFXElG0mYGgDB55omAB6jUk5OwJCEILcHbMOuzBgkfEGNacOiwY2q3ulIkHy0ge5YqFXz8vLw4svvoi+ffuiU6dO0RNhhz6FEvGk+7fN8Ly9JLoE4f0LYa4pBCHQDUfbg15zcrAxN0IxK04ZWPcyZozvmIw0mwRRKmrNhCAEuqNxPO/LG5sK8PT6woipF3zDM0PD1M7J6FVeEsQEsWRhVZ05cyb++OMP3H///ahQoUJYbcnDxiHgmb0L7pfmRo8g2Mywf9wH5vLJxk2ymLU8eb8TNyzNV5ESo1HSrMDcbilokipqWyEIOu3API+GO5fn4esIGCeeachP1rNjeNNEUTLotJ5FNZOfn4+hQ4eidevWGDBggKgXIoB5qF14Nx2F88E/ovdelEmA/ZOLYXKITjuQNaR64c3NBXhyXeQvWr7xmaBh9DmJGFxT0nYLQQhk1wZQ54hTw+XzczHnWOTsD04c1iUVLRjXPhlWcacKYLXCqzJ37lyVuZFhlevWrRteY/K0oQhouU44b5kM5ETnOmpqUxG257uJCirAVWYipsdW52PktuislxqmBvxfbRveaZkU4KhLZjVRMQSx7vsLvOg+Oxcbcw0K9+VnLB1KW5SaIZVWNlIMQ4C2B++9955KxkT1guRdMAxqfRrWAOdLc6DN3aNPe8G0YgIst7eE9fKGwTxVouvmejTcsSwP3+4x3k28KKAvqmDBb51SSvRa+Ju8EAR/CJ3w7zSsoVvO7oLoGNa0KGXBjHOTVQ50KcYhsG7dOnz44YeKHNSpU8e4jqRl3RBwL9gD97C5MEUqUZNv5KUdsA3vDnMtMVAMdDGz3RpuXJKLcfujI4n1jbNjaTPmdRfX1KLWTQhCoLuaUb8KvOg0Kwe7okQQWqZaMKNLMtKFIASxasFVZfKtH3/8ETt27MCjjz4qYuPg4ItabS2rEM5nZgGbMyI6BlOXqrDd3w4mCZIUMO4kCDctzcMv+6IrQWCmx7ndhCAIQQh46xZd8UChFz1n52JdTnRUDJ3TLfi9czJSxHlXpxU9vZmcnBwMHz5cuTZ27tzZsH6kYZ0R8HjhnrAJni9XAc4IvZ+JVljvbwtL1+pR86DQGcWINEdj77uW5+Or3VG0QQBwWUULxncUFYMQBJ22/TGXhqsW5GJGBIMknTj0fpWs+LE9Q4SKikGnJT2pGUoPfv/9d8yZM0epFyRroxEoG9em91Ae3MPnQNt41PADm3vFfG5V2IZ0gClBXI+DWVWXF3hybT7+u8UZuRDLZxjgo3XteKVpgkgJi1g8UTEEsbPzPRruW5mPT3dGgflqGoY1TsBTDSXvfBBLFlRVSg+eeOIJdOnSBQMHDlRGilLiCwHPsv1wvzwXyDVYfF0lBbYRPWAuK1bwwe4QWnC9s6UAj64tRGGEhD2njpFujj+0ScKAapI/QyQIwe7gs9Sn/dO7W6OzselhPbtrMjqUEV9rnZbzNOnBn3/+ic8//xzPPvssatWqZUQ30qbBCGheDbkT18L1+UokOQ0KglMpGdb/aw1L68oGz6b4Nj/tkAuDFuXjsCs6Bt/l7cD8rimok2LQHikmSycShCAXcuExN65YkId9hZHd2OekmrCgRyrsEgMhyBULrHpubq5ybXQ4HLj33ntFehAYbDFVi2J/Gpd+8elnaLEnFRceqQGLnoIEDdBSrLDe2xbWc6sBFpEwhboBDhd60XtOLlZkR0eE0Ke8BT+0T0aq2HMVuYRCEILc4YUeDYMWR9ZFh2EPPmiRgJtr2kVfFuR6BVp97dq1KjDSkCFDUK1atUAfk3oxgACJQWZmJigBmjJlCmrUqIEBV/VHtdUueMduAI4WqMA4YRWzCaaqKbDcfg7MrSvJexgWmMcffn5dPp7b4Ix4/jmHGRjR2IH76jhgkQuXEAQd9vJJTcw96kafubnIioAbr8nrRpfSJozpVBoVE+TGovdasj0eMN9++y0OHz6sjBNNYgRqBMyGtOl0OrFs2TJMmzYNDI/dq1cvdOzYEYmJiVxYeFYfgmf8JmiL9wOuEF/YBCvM3avDcnkDmGumGTKPktjo3nwvzv0rG9vzIzv7hskm/NIhGY0lD4Nf4EWC4Bei0yt4NA3PrSvA8E3GW+HW3fQnrjNtw/03X48y6elyeIWwXv4eYeREhlSmYSIPFymxjwBJHdVC3333HRYtWoS2bduif//+KF269MnqIaoF8l3wrjsM95ergW0Zx7Ou+Sus4jDDdE5FWG9oBlPVVJjs1ojfdv0NM57/XdOAz3cW4o4VBXAHsCS6zFXT8GrTBAyp54BZLgJ+IRWC4BeiM1fYV+DFdYvzMPOIJ2zp5dmGQHlBf88WNFo5AVmZmSppUIsWLZCcnCxEIcR1O/UxHjSTJ0/GggULxLVRJ0yNbobEYPXq1SqgFSUFV1xxBdq0aeP3ndDcXnjXHIZ3zi5ou7OhZRYCee7jkgV6DtssMCXbgPQEmGqWgrlHTVhqlwZEDG3Ykh4p9OLW5XmYuN8Do60R+D3tVc6C8R2SkSS2BwGtqRCEgGA6vRI9GuYedeGWpfnYlKc//eVmvrSiBe+2SERC3jHMmzcPM2bMUNb1l156KWrXru33gxji1ErUY8eOHVPSg549e6Jfv35inBjDq08yt3PnTkycOBHbtm1D165d0alTJ5WKO1i1kFboATILwQiMKHAfJwEOC0zpCUCqHSabWLdHYitwTWn4ff2ibGzONwEmY9So5H9t0sz4snUiGpcST7BA11YIQqBInaGeV9OwJsuDPvNzsacgjIZOeZSb+fzyFnzWKhFVEo9/qDweD/bv34/PPvsMW7duVeLU8847T1ndSwkNAX6cqLv+6quvMGLECFSuLG5roSFp/FOFhYVqrcaMGaPI8U033aSMSS0WOciNR1/fHrxeL7ieGRkZivCtXrMGc1auxeTm1+JgOWMyp1a2A1+3TULP8rbopQXXF8aItCYEIUyYeciszvJgyJoCzDrsgTNMYUKqFbiykhUvNEpAzeSTP37si4ZY//vf/1S0v+rVq+Piiy9WCYUk42DwC5mdnY33339f6a1vv/32oG+hwfcoTwSLAI0QKS349ddfsWfPHpx77rm46KKLjhshSolJBPid4oWGa8fgY/QwIRk4evQo9u7dq1xR+d/8lvHfWZhSvXG/m/FaZgWsyvLqpm6wmIAmKSa82SwRvcpb5R0PcscIQQgSsDNVV6LPfC/G7nXhrS1O7CnQgt7gFKy1SbPgvrp2XFnZVmS+Bfa3ZcsWRRT4J8WsF1xwgTropASOwJo1azB69Gg88sgjIj0IHLaI1OQe5yFCt0Wq1xo3bowLL7xQVGsRQT+4TtxuNwoKChQJ2LdvH7Zv346DBw+qw58/GgEzKilVQTVr1kTFihVBKQIlQvx+lSpVCg899BDqN2yIlZkevLihAJMOeBBuDCXmtLuyshVPNnCgZZqoFYJb1eO1hSCEgtpZnqHw4FCBF69uLsToHU5kuDVofgRaZmionmDGY/XtGFzDgUSrKWARGFk6LbipdihTpgzuu+8+ddAFq4/VEYK4auqLL74ApQj33HOP2B7E0Mrx8KAa7d1334XL5cKdd96Jpk2byhrFwBqRuFEykJWVpdQDJNmMIXLgwAG1VpRkpqamokqVKmjSpIn68b8TEv7NeUASwXTq/LN169ZKTXr99dfDbrfTMxX0Ehuz14nH1hRidwFNF4PPPVPRDuWtcE01O2xiZBryzhGCEDJ0RT2oIcMJTD7gwqIMD+jve8ytqSRzfAGSLSaUsZtQLdGEHuUs6FbWhiQL88sE/yLwhaXodfz48Vi5cqWSJNB4i2xdytkR4O102LBhxd+1UdOguQuh5WfBm3sU3rwMwFkAeFwAc01Y7DAlpMKcUgbmpHTAkQSTOTp6fd9epjHu/Pnz1eFBFZrYhkTuTT5VPUCpAA15+SfjhOzevfsfMkCJpe/HxGZUedKImhKBU21D2C7bobcQ1UX169fHVVddpRKi0SslPT39pEmqvVDgxRc7XWDcmbXZXhwo1JQKlwbiPk0uv5jKvtQMVHCY0CTFjB7lrLixul39fyjf1MihHfs9CUEweI24kZ0eDbkewE12oNyrTYoQWBmdTaf++ZKtW7dOEQWK8+jp0KpVK7FNOAO+/Pj88MMP6ubzwAMPoGzZsjqtQuw0o3nc8BzdBdf6WXDvWgVv9iFoeRnQCrKguZ2AdvxmpsiAPQnm5NIwJaXDXLYm7A27wlqrNUz2pIh9YCmiZiREkgPeQLl/GzZsKEa4Bm4pvgf80WCQdgK80dPeg3YC/H+qBvjjYV+uXDkVoZKGoWlpaUhJSVHkgH/y5l/UQeyTCP3000+KZFx++eXq28RnAykZTi+25Hqxu0DDrnwvVu3PwKylK9H6nJaoUjoVdZLNqJrAC5cZ9ZItKGVTOzuQpqWOHwSEIBSjLcKXnSLzb775Rhkxdu/eHVdffbVi9FL+RYDSgyeffFLptK+88sqIHYKRWAMfMcj7fSRcm+fA5HEHnfqY+8iUnI7EXnfB0bwPzAkpQbcR6FzZ16FDh/Dll19i1apVak3obkqRtBT9ECDOPKipHuBlgiqB9evXY/ny5YoQkCRQPcAYK5Q+1qtXD+ecc46y+aBBKAmA2hdBSjl93icMaNW8eXPcdtttSloQbDsnIsEYGC+99JLyPCJpkWIcAkIQjMM2ai3TaGjx4sX4/fff1UtNtQNf9qQkSU3LjyQN38aNG4cXXnih2KhiNK8H7p0rULB4LJyrp4IhuvUo5or1kdD2Ktia9IIlpaxuRIH7kmJripz/+OMPVKpU6R+pQTiHhx5zjuc2fN4DJAEU6fPGzj+PHDmiJAQkYzy0KaWhVICHNSVoVatWVT/aMtlstrAh8EkNqE6gWoKXFcYa0eMbRPUTE6u98cYbSkUhxTgEhCAYh23UW+bHYObMmZg+fTqaNWumIs7RYKgkf4ApOqVrI/Wl1157bbHAwpufhbxZn8K1Ziq0zAPMLqHv3rPYYK3ZBok9b4e1xjlhY8bDg7fXX3755SSRMyVdJXlvBrtoPokApYY8/GnYScNB7nG6EJIIsJAEUBLAPU8CwEOa4n3iTQNBvTEnOSEJp8qI/eod2I3eD5SSvv3220riIcU4BIQgGIdtzLRMv2NaDfMmcfPNN6Nly5YlVrdLu4OPPvpIRU/kDSreiyfzAHInvQz3hj+Nn0pSaST3ewH2ep1CMmT0qcB+++038Md9eMsttyidtpQzI+BTDVAyQC8BHr50ISQZIMmizQD/zqceoDSAhzK9Bxo0aKAkBbRJikQhYeE3ht5BGzZswGWXXaZURnrHaKGdFQnIm2++qewfpBiHgBAE47CNqZapdyfzpm0CPxw+n/JIfTxiAQx+bD/99FNQBUNdqN4frsjOUYN73ybkTnkLni0L9JcanG0yVjsSet+HhDZXwOwI/PZGI0Tqu7kHqQenyLlz586G3GAjuw769OYzGPTZCFAlQPUA31tKBCgNpJSAUgHe/kluSQZIrmgzQONBitv9GQzqM9rTW6Hb48KFCzFp0iQlqejbt6/yVNBbOkGcaM9Aj63hw4dLJE2jFvTvdoUgGAxwLDXPg5HSBOrffXpBEoWSEpWONy9+VK677jq0b98+lpYm6LG4D2xGzk9Pw3tgY9DPhvuAKSEFCb3uQUKHgTAFEDufBxst2HnjZSTE3r17q8NM78Mj3HlF6nkecix8HxlIiPuSkoBNmzYpUkDPAUoLWKgGYHAhGg0ywBDVA/xRtE71QCwQfJ+RKdUb9FBgZk2jDKMppfjkk08UYXrqqacitWQlth8hCCVw6XlLofEQIzFSHHnNNdcoA6XiHNeeHxZayjNyGyMnxrNY25N9GDm/PA/P5jnR271WB1KueQM2qhvOYNnuc5/jTe/bb79VXgmDBw9WroslhRj4YgqQCPgkA5QI7Nq1S7kkkxSQIPjUA9yTtMpn1EgSAtoOxLKUi1IhBmqjSoHjvvHGGxWZMXJ9SZxoQ0RcGOBMirEICEEwFt+YbZ0fr82bNytdMKUK3bp1Q5cuXZQRk5EveLQA4S2WgZH69OmDSy65JG7nqHndyPvjXRTO/QbQyVMh1DUxJZdFyrX/ha1685OaIBnjbXjq1KnYuHEjevTogV69ehXrUOCcMw8vGgeSBNCNkLdcXw4CSgZIBiitoyTA50HA942Gw5So+NwJQ12PSD3HuTI4Gy8ZvlDv9FAgwTH620F8aZxINQYvNlKMRUAIgrH4xnTrJAk0cOItj4GDeGPhS0cbBaNf9EgCw3nyY8YfVQzxnLOicM005I59GnAft1CPdrE27IaUK54FEtPUgUijOOL8119/KekUo+XRhVEP17loz9XXv08ycKLBIMk2s63y72hQyEIseKOmLp4kgGoBSlKoIqCtQDxK7CgJoXcCbQ1IagYMGKCkHZFSddBjg8aJHTt2xPnnn1+svlOxsr9PHIcQhFhclSiMiTecr7/+GgxCwlu278ZXHIgCDagY158fMn7Q4rV4sg4i+/O74T28LXamYE9E0qX/wfKCssq2hQcF8aZ5P038AAAgAElEQVSUhunI49XK3EcCKBWgKJ12AZQGkATw1kwJCf+fhzwPft6eKRlgVkKqUfjf8Tr3M20uSg1oODlx4kQsWbJEGZjyXYr0HDmGt956S3lItGvXLnbeg2I6EiEIxXRhg50WP4gU31GnSNEwxZ00YGSApVjWgwYyT0bo++qrr/Dwww+r22xcFq8H+fO/Q/7Ut4/nUYihcji9Cd7anIZjR4+q1ONMnW20LlrP6fvIAPc/3fSojuKPBIA/SkaoHuDtn7dm5oagtI0/EgH+HUlCpG7Res49kLboOeHLoUAPCh7OjKsSjfmSoFGCQC8kSmakGIuAEARj8Y271n2hb+lrzGiMbdq0UeGa49Woj/OhURNF3DfddFPEbzx6bQBPzlHk/PAYPDuW6tWkLu24NRPGHyqH+fkVkJiapnTDDz74YEzH2eBtmFIBSjpoMEgCybgCFF/7vAe4XzgXZpGkVID7n39HksBbc7yT5kAXnyoTkusVK1YokT49UKg6iZZkkZ4So0aNwpAhQySJV6CLGEY9IQhhgFecH+VHlLcGRrujOxXFibRNiLcY+TSmot0BA/LQ/Spei2vbImR//QDgKoipKTCznkszwVG5AUrf+TnMVkdIMfv1nJQvuJDPaJC3fx7+lARs375dqQf437wB8+bPA88XYIjqAdoLxIvBoJ64ndgWbQ2obqTakVjw/W/RokVUpAYnjotr98EHH+DZZ581zJXSKEzjsV0hCPG4ahEcM62xGSufAZZ4wDKvA10io3WDCGbqNBb77LPPVPhZ3jjiVQrCOedMeAnOxT8FM/3I1jVbkXrLx7DVaBnRfk9MT0x1AAkhkw9RVUBSwD8ZaIjFF1CIngM+UkAVAX32S4pEwN/i+CSINDRds2aNkiDSQ4E4xULhmPhOM1lTpO0fYmH+kR6DEIRIIx6H/fEmxo8uQxRTLHvDDTeoD0esW2H7pAcM3kJ7ingtXlchMt+6HFr2wdidgsmExN73IrHLYN0SOp06WV+0Qe5HHvoM9sUDg66UdC3k35O4UspFKQDjCVAiQOkApWBUEfAX6/s2WotMqSFVCVQpULpClRwxjCXytHTpUhV0iy7L0bCBiNbaRKtfIQjRQj7O+uXHmeSAVsx0YWM+d1qqM8RrLEoT+LHjLYjSD35MAs09H4vL4tqzFtkfXh+LQztpTLbmFymXR5PNEfJYT1QP0HOAe46SABICklSKmPkn61EKwB8lACQEVIHVqlUrqjrykCcexQeJJb2YKCVkYjfaXTCRGbGNtTJ37lyVh4Eqhlj87sQaXuGORwhCuAiWsOcZFY5R4JhKmi5HDK6kVxpXPaHkwcKAKsxBT6vreC75C39C3sThMf9BtNRsjdSrX4GZaaEDKD4yQH0314ueA1QH0T6A/09SQHJAskdPARoN+lQCjGXBv+MhRqmAHBYBAH6GKlTDLVu2DJMnT1Z5HihtI/mPVfE9c3nQePrxxx8PbcLyVFAICEEICi6p7EOALmG8nf/8888qvgCzRNL9K1Y+1BQ9jx49Wn1IqHuO55Iz+VU4539nmOheL2wsFeoiZdBrsJSrpfIMUOR/Yp4PEgL+HSUDJAP0HuCPdi6s71MP8OBnNkIaxdEt1ec1QNUAxcqxssf0wi1a7ZAQUFw/Y8YMlSOD3kqxbpw5YcIERSLvvffeaMFWovoVglCillvfyfKDz5f1+++/Vx985n2nIWMkQq4WNRPeiugKRdEz7SVi9TYU0Gp4vcge8yRca6YGVD2alcylqyBl0OvITqyo1Dv0HmDEOxoPkgTQg4DqAUoMePOnFMAXYIhRF6ke4P+LjYCxq0gyxsRZY8eOVZEfmXmxU6dOMWVrcDYE+K0hwaRXkhTjERCCYDzGxb4HioIZYIn2CdQFkyjwBhjuTe+4URrjAnnhcXsVjmaLCVab+biBkunM0DLs7X//+18VTKV169bxjb/Xg6yvH4B789yYn4cppRx2tboDExasVwcQD3p6DNBIkIGTuDdIDGgPwr9noKFopSeOeTANGiDJGt9Thlen+o0RU+PFK4mQMJMjif/AgQMNQkiaPREBIQiyH3RBgIc5b4wff/yxsoSmASN1/6HETWBbBTlObF68H4smbcGOlYeRn+1U47TaLShTJRmtLqqNlr1rokwVBm2h9P04W6C++r333lMhcZkONu5TWZMgfHUf3Fvm67JOhjaSXAY5vZ7AjLV7lJ6YN1USNZIAUQ0YirzfxvlOUYJDTyQaJJI8U9oXb9KakSNHqgiKF198sd85S4XwERCCED6G0sIJCDBC3cyZM5Vek+JiEgVKEwJJ1uN2ebBn/VGsmLYDiydtQdbh/LNKIfjBs1jNqN++Ejr1a4D67SsjqZRDZaZ87bXX0K9fP3U7ivuieZH94+NwrZkW81Mxl66MlEFvwFqlkSIHjFJIqQFdDKVEBwG+J4wFwaBnDKHOUNiDBg1S2STjrXAuI0aMUOoQZgiVYjwCQhCMx7jE9cAXmTEI+EGiNIGiTFpHF/VRosTgz+/XYf7Pm3BsX25QmCWk2FC/XSVccn8rLFj5l3LXGjp0qIqSVxxK7sSXULhwTMwbKZrL1UbqNa/DUr52cYA97ufA93DDhg0qGipthCiWp8qN2STjsXA+dG+k9IC2LVKMR0AIgvEYl9ge+EKTIHz44YdK1H/HHXeoFMA0jKL+2acWoORg7IgFihyEWtiXLQVwNV6Piwf0KlapYPPnfYu8X18L26YjVGwDfc5S4xykDBwBS6n49hoJdL6xXI+GoPQy+vHHH9GyZUvcc889cW/vQfXhE088oWI0MImcFOMREIJgPMYlugefiNOX/ImJb+gieffddytDtZyjBZg0agkWjN+sC05JFYGbhvdCgzbVdWkvFhpxbluC7M9uP5tNZiwMUY3B1uQ8pPR7HiZ7fN5QYwbIMAbCQ5TBpCZNmqSkeIwg2q1bt/i3xQFUgi3aFdF+ghEepRiPgBAE4zGWHv5+uWfPnq1iE9Bg7corr8Rll16BPz5biWmfrv7HS0EPsKo3LYvbR56H1LKJejQX9Ta8BTnIHHk5tNxjUR/L2QagAUjscSeSet4OmMwxO87iPDC6/9G9dN68eSqqZJ8+fVSk0+ISkpgeGC+++KKShvCiIcV4BIQgGI+x9ACo0Li81fDjxQ8ZYxUMvuoejB++CtmH83XFiH117t8AVz3ZERZLfB1WHPvBgweVT7oviRBVMVk/PA53DMdC0ExmpN7wNuz1Oum6ltKYfwS4Z+i188UXX4Auvv3791cqtnjzUPA3U9pRvP766yqdOKNqSjEeASEIxmMsPZyAgC/hTn5ePr4dOgdrZ+wzBJ+UMg7c/HpP1GkVG1noTp2kL8wwiRL1xRSf0k2UMSVmzZqlIgxSd8xfu3btYNo2H7k/PgF4jrt7xloxl6mBUnd9A3NC8TAMjTV8zzQe7iGGop4/f74yCGY8gyuuuELFnAg3Bkkszn/t2rUqkRQJQqxkl4xFnPQckxAEPdGUtgJGYPf6Ixh1829wFXgCfiaYiiazCb1uaoo+97RS7pDRKNQH88fwwiQB/JgzfwVve8xESPczkgL+uy80MQkDbTRoyMmgQgx/yzC41oIMZH/7EDx710VjKkX2yWBWSZc8gYQOA4rlwRRzgP8tkaONASMLbt26FVdddRU6dOgQ10nJ/OFM7yTmgHnooYeUkbMU4xEQgmA8xtLDKQjw5vPLawvx57frDD1QajYvh9tHnYfk0gm6rAHHzeK7/fNQ54+Hv08KQD0pUw8zBgA/4L7EQyQK1AUzaBDjAvDHOBF0/aSemD/eihh+mFHumDHzxhtv/Nc11OtB3qxPUDDrY0aD0mU+ejViLlsTaf/3A0xWu15NSjtFIEBpEwNR8TZNaQG9gxitsjhKDU6EgSrK5cuXKwlCPGdnjafNLQQhnlarmIzVme/GqFt/w551Rw2dUVKaHfd/fjEq1koLqB+f+oO3eB78TGbjE/tT9M//pv0EP9C84VMi4Ms6yGeo86XdAA953v7pb85IkozHwL/nrYeeG/y4kSCc7YNOCQJtEE4NLuU+uBXZ3z4I7ejugOYTkUpWBxLPvx8JHQcV+wMqIngW0Qn3JwOB0RCRtgbMokoPBRLNklC+/PJLldPjvvvuCylCa0nASO85CkHQG1Fpzy8CR/ZkK/VC1iF9jRNP7dhsNuHWkb3QpEu1f27+PgkAD3QfAeCtnwZQFP3zRzLAQ5qif978WZcfZx7qPPiZYZC3fWavJBkgCfBlHPRJCHi4kzDoeavTNC8Klk5A3vgXYsblkSmeU/oPhyUtNm09/G7GOKlACRUjlJIc0ECPKgX+WdwMEYtaDoZZphSOLtIk0FKMR0AIgvEYSw+nILBr3RF8eM9U5GYUGooNNQLn/V991Omcpg596v99on/q/ykJ8N3UfWJ/BnTibZ8phyn250eY4lsSA36cSBT0PPSDBUDzepHz01PHsztqUVY1WBOQPOgVOBp0DXYaJbK+Bo36qeNzZ/4QRfPOknHsb4RIUKmmGjdunAo61rVrV+UiHEqOk3gGne8dXRz5Tg4ePLjYuG7G+poIQYj1FSqG49ux+hA+uvcP5GUaa5HPb7GjxUHYamQqMaxPvE/RP4kARf+UAPhUAvzo6n3rN2L53Ed2IffnofDsWmFE84G1aUs4rlroMBAmiXtwVsyU1MedjUMF23E4fxsKPbkgUbCYrEixlUWFxHpIT6gCi9n+N2H4tymqs+ihwIiI3KNMy9yoUaOoEtTANof+tSjFe/zxx1WCKRruRpOk6z+72G1RCELsrk2xHdmeDUfx/t1TkHvMWAkCAbz88dZo1aeG0uf7xP5xHzhG88K1cyWyvx8C5ByNfI4GsxUJXW5CYo87YLLaiu0+DXdiLm8hVh76FeuOTkOeOxMuLR9eJfXRFBmwmG2wm5OQ7qiKdhUHolpKM0W2fJlRaYRIozwmPGPiMdqulNSDkdI+GicyDwOzxEqJDAJCECKDs/RyAgKZh/Lw1g2TkXEgz1Bc6N541/vno17bSob2E+nGeYDQU+LA0qmosuobeDP2RGwImtkKR6u+SLrgAZgTS0Ws33jqyKO5sTdnLWbs/hAZhXsCPNRNaFrmfLRMvwy7txzC6NGfKVXX9ddfr6IillRi4Ft3qghJEG644YbikaU1Tja0EIQ4WajiNEy304MP7p6CLUsPGjqtUuUTcf9nfVC2aqqh/USyceqkeaucOHGiCjd7dbfmyJsy8ri6waffNmhApqTScHS8Bokdr4EpIcWgXuK7WZK3tUf/wML9PyLHfTjIyZiQ5KyGzb+Z0KZJV+WhQFuYkk4OCCK9F4YMGYIHHnhABQ6TEhkEhCBEBmfp5RQE/hi9EpNGLTX049ewcxXcOKIbklIdxQJ/Hj40VqM/OPXTNFYbOGAAvLlHkTNpBFzrpsNkBEnQNJhLV1bBkGz1O8NkEQvys22ozRlzMXXnKLi10NRnXL4UrTKubfoqEuxCwnw4b9u2TSVqeuaZZyRRUwS/ZkIQIgi2dPUvAsf25+D1qyciL8sYQ0WqF/r83znoeUMzmC1FW4rH07owFsNzzz2nvDIYVpf6aRaSh8JV/0PhnK/gObgF8LjCn5bJDFNyGVhrt0HSBQ+KK6MfRA/lbcPEbcOQ6w4vvgfXsmF6D/Sqfjds5uJBbsPdjKtXr8bLL7+sfjVq1Ai3OXk+QASEIAQIlFTTFwGVvGnUEkz/Yg1ttnQvZaql4La3eqFy3eITkpWYMdTsb7/9piy5GUWP8fd9RUV4PLYXzq0L4FzxKzx7VgPuEAgYiUFSadibXwh7456w1mgJk0WMEYvapG6vE3P2folVR36DhvDdT23mRFxQ40HUSWuv+7sRjw0uWLAAb7/9NhgLgW7HUiKDgBCEyOAsvZwBgUM7szB6yAzs35yhKz50I7vikXbofk0TMCdDcSkM4jR8+HCVm2HgwIFF+oJ7nXnwZu5HwYIf4Vo/C1rOEWhe93EVhOkMmNBV0eqApXIjJHS8BrY6bWF2pACiTgho+2QW7se4Lc8hy3UgoPqBVGqU3gM9qt0Jm1mfUOGB9BmrdaZNm4ZvvvkGo0aNkjDLEVwkIQgRBFu6Oo6AL6eB16th8aQtKi9DYa5bF3ioTmjZuyauG9Y1akmadJnIKY0w9DPtD+gXTz1soOF1FdaaF96sg3DvXQfvoa3w5mZAc+YpWwKTIwXm9CqwVG4MS4U6MNsTjRh+sW9z07E5+H3nf3WRHvjAKuOogUtrP4k0R/HywgllM0yYMAH/+9//8NZbb6mopVIig4AQhMjgLL2cgMCmTZuwaNEiFbrYbk3AkVXAmknH4C4ML7MjpQWNu1RB/yc7Ir1S8TLw2rt3r7o9MVgOJQhSYguBmbs/xqojv+o6KLs5EZfVGYrKyY10bTfeGiPJZdbKpUuX4tVXXzXUsDnesDF6vEIQjEZY2j8JAbrprVu3Tt0EaInPnAb/+c9T2DL3GH5+eT6coaZ/1jTUaVMBg1/ridQyxesWzA/k119/rbJDMlENI0BKiS0Exm56Cnvz1uo8KBMuqvkI6qV1KtGHIqMofvHFFypPypNPPlmisdB5g/ltTgiCX4ikQrgIkBQwD8KWLVuU5IASBOZAYLKkW2+9Fa1atYLm1bB29m7M+notdqw6DFeA0gRKDcpWTUGbPrXR+9YWsNot4Q435p5n5r433nhDpX/u2LGjfCBjboWAHzY+goP5W3QdGYMuelc3Qd3SHdGmTRuVJCzuo4CGgBCTpn300Udq399zzz0htCCPhIqAEIRQkZPn/CJA5k/Wz1jyPOTomkfxePPmzdXLTtLAA+/EzGxZh/OwaeE+LJq0FVuWHgCDKp3u5aDBYrUgvXIy2l9RD406V0WVeunFyubABy6lLFQtsNx///0qhbSU2ENg7OansTd3jb4D85pQLfMSLJ66VdntdO7cGeedd57KI1KSCjOrvvfee8pjZ9CgQSVp6lGfqxCEqC9B8RqAcrXzekGdOfWGzEBHgzr67Hfv3v0fAyOfoWJRUeKcBW6snbMTmxccwL6tmTBBQ0qZRNRtUxFNzq2GlHJ22Oy2Yn2rmjdvHkaPHo3//Oc/qF27dvHaLMVkNtzLM3d/iNVHf9d1RjZTAi6r8xzKO+oo99ZffvlFqZduu+02NG3atMSkes7OzlYkmVKUiy66SFeMpbGiERCCIDtEFwRoZc9wqOvXr1dqBOrLGUOe6oP27dsHbXnMj+7WrVsxffp0DBgwQGWzO7H4YgJkZWWp5C3FMf1tbm6uujlVqFBBqRck5K4uW9WQRozzYvgP0hwVlQSBpJsxMNauXauyOnbq1Em9YzT2Lc6FeUcY/4BBwfgtkRI5BIQgRA7rYtkT1Qi0LeBBzgOdhxglBfyAUSQY6seLbTEwCttj/HUGBTqxkJC8++67WLZsmUpow2x3xU0/O2fOHJVzgaqFKlWqFMv9U1wmlVmwH+O3vYBM5z6dpmRCo/Se6FHtjpOiKVIfv2PHDkydOhVr1qxRkgRK52ifUFwJJC8eJAg33XQTGjZsqBO+0kwgCAhBCAQlqXPa7Z3pV7dv3w6mpKW0gLfcq666SiVSsVjCMxSkSJFGSUuWLFE6dx6QLVq0OGkMx44dUy5P/Fjy48hELidGFYz3JaPtAdUKtNno169f2JjGOx6xPv5/Iyn+CgbqCrdYTQm4sOZDZ42kSIkCifmnn36qJAuXX345LrjgAqWCKG5EYffu3UrF8NBDD6Fy5crhQivPB4GAEIQgwCrpVZ1OJ3bt2qVEnDy8KQJv3LgxWrdujSZNmsBms+nycfKpF5599lklRr3wwgtRr169k+A/fPgw/vzzT6Wb5b9feumlQasxYnU9KZUZO3YsaH/w6KOPivQgVhfqlHEdzNuK37a/Gn40RQ1/52K4C9YicjHwPSGR/Ouvv1QALf5/ly5dFEmn3U9xIQqUJlLVNnToUJUCW0rkEBCCEDms47YnEgPGLpgyZYqSFlBtcPHFF6tDm7f3cCUGZwKGhz9vR//9739RpkyZ0z52PiNHX/KWa665xpBxRGPRmLmOIlVi3Lt372KnOokGppHoU9O82Ja5WEVUDDWbI8dZLbk5Lqz5MJJsJ9vdFDUHEubFixcrlRRTRJM0U19vxLsZCSxP7IN2TTTUff7550ucB0eksT61PyEI0V4BBmfVKJT0RRE0wQwzTIyNH8XCWywzB5IY0HqaLom0A2CK4WbNmqnbilE3FF9glJ07d4JShKL6GT9+vIqrQP/o4uACSNuKH3/8ERs2bFA3puLwgY/iNo5I13wXuGdpH8DYHnudyzDn4Gco8GQH178GVEpuhPNr3I80e/A2BRwHVX9U+y1cuBB16tRR9jkUy1O6F69l5cqV+Pbbb1UeEnkfIruKQhAii/c/vVFneTh/Bw7kbUSu6xjyPVlMUgCr2Y5EaxrS7BVRJaUpUmy8PUeGLPADQ2nBxo0blQEU1QiMe05DKLoYUWIQiRc0IyNDGSjyBsSbUFGFt4svv/xS6Sd5c4r3QpsKilOZrZGqGymxjwDfFXru7Nu3T5HqBx66H9m27Vh+cAL2522A9x/yf/a5OMwpqF+6C84pfynSE/7N0BnK7EkyqQacO3euIs8tW7ZUqgcS/Ei8v6GMuahnmMlx8uTJKs15cTNE1hsrvdsTgqA3on7a4yF8KH8bFu7/AQfzNyti4NVOT1TEDG7J1jKom9YZrStcjgSrcbkFOCbefCiiZFCjQ4cOKb033YqqV6+uXAwj+WHx6Rwfe+wxZfxYVKGx4ogRI3D77befZqcQ4aUNuzvGj2AIamLN+RQHiUjYoMR4A3x3SA6oEuJ/X3vtteq9YcLMHOcx7M5ZheWHxuNwwc6/pYQ0YDTxLqAkY7wQ1E5tixblLkaFxLqwWvRzWeQ7TYJACSA9AWjPQ1sd6vGNkv4ZsVwzZ85UNhb8HghBMALhs7cpBCGCeLu9hdiSuRAzdr0Pl5YfUM/8kFRJboye1e5CmcTqMEG/9MUUidLHmMGMmC2NB1TdunWV1TxvG9F6GXnzYea2QG4MjLL25ptvqihzPXr0CAjTWKzEw4XJaOi6yXwLjB8hJbYR4AHMvUqVEA9dxuJ48MEHkZ6e/s/Aj9vKaMhzZWBnzkocytsCj+ZEgjUN1VKaoXJSI1jM+hj3ng0tqj9oyOh7x6+77jrlhpySkhIXRIHSA0Zi5XsRrW9SbO9E40YnBME4bE9qudCTh2UHJ2DRwTEAvEH3WtpRFd2r3o7qKS3Ceqn5waL3AcWiq1evVqJIftAohqQrISUG0X4JP//8c4UPgwP5GwtJDvPEU6zKCHPxWnxqFa7FnXfeGdc643hdg0DHzXfo4MGDyiCQtiKM+8Efg3YZZbQb6NjOVk9JLg8dUp4xvJEzSVq3bt3Qtm3bmPf++eGHH5Tq5pZbbgnr2xcuhiXxeSEIEVr11YenYva+0XB5C0LusYyjOi6o+TDKJ9YKug2fGoE3CaoRKDmgTQHTB1erVg2pqakx8fJRivHMM88o2wN+wPwVzoveFbNmzcKwYcP8Egp/7UXj3zkHrsuYMWOUUWa5cuWiMQzpMwAEuFY03KXdC8npHXfcETHbnACG57cKpQn0eGCgJQbiogEjJQoM4+2PjPtt3KAKn3zyiZJ20C4nnlQjBsER0WaFIEQA7mznYYzZ9Dhy3UfD7M2EJum90b3abUp36a/4SAFvO8uXL1cxA2jNTPEiA6vEYtARGnq98sor+L//+z/Ur1/f3xTVv1NF8vHHH+OFF15QLpHxVijRoTsnvUMYFU8+grG5gow5QMNd3mhJrinpiefESbRPoHcA7RN69uyJrl27KkPfSNobBbLStO8ggeFlRt6NQBDTr44QBP2wPGNLXq8Hv+98E5sz5+jSk92chMvqDEXl5LOHHPUFUKHRIdUIVCfUqlVLqRCo26bhX6y+aJMmTVIuWg8//PBp+RfOBiAjyTGqIjO9MTtkvBXG1589e7bSsVJELSW2EOD7xGh+3Jt8l0iueZgWh/wf9Foi6ZkxY4aSLNDbgeqSsmXLxswivPTSSyr40/nnnx8zYyopAxGCYPBK05Xxh42PwguXLj3R5qlR6e44v+YDZwweRF0dJQV84fnykxDwVkpPBN52YpUYEByKPxkMhSGTacUfqMiTvt8MmEQSdPPNN+uCc6QaoV74qaeeUtbl/AU650iNr6T344vq+c4776gwxiRxVAHF2i07nHXyXSioOmEMBdrzMEEaycKJqdjD6SPUZzm2p59+Gn369FHjkRJZBIQgGIz38oOT8de+T3TthVKEmxp/gARrqnKtouiTEQ7pL0yralpUM/QxD5xYugn4A4GqkCeeeAKDBw8OyP7A1x4x+Oyzz5SlM3X4oSaI8jc+vf+dOmx+kCnlYVCkUzNW6t2ftBccAjQ6JNFmMC4eTjw048XyP7iZHq/N94hzHjdunPKooSEjM6XSsylaqhSSFeYkGThwoDKolBJZBIQgGIi3V/Ng5u6PsOboFF174Yt8Vd2XkeCsoAyNGNiIAXYY0Kh58+YqP0I86uJJbmiQxLgG/uIfnAooRfTUp/KgjRcxPdft/fffB8NESxpbXV+RsBrj+0VbmO+//155K/jSDMcL8Qxr8n8TBYb7puEs1X28bNCFmLZL4UpOfCHSfWP0J9GkGzMlbJQM8tsmJbIICEEwEG96LEzZMRJbs+br3IuGvAUNsWXxMSUOZKpjWv3zBhqvIVXpvUB3RR6aVDMEK2qnoRVFkQy5HA8xBDhfSj14Y2M662Dnq/OGkub+RoDrwkORRJWGcXSti0Vj3kgsGL8t9HZiThQaNDKaKl2P6fEUTNG8HnizD8G1ZSHc2xbDk7mX+kSYHCmwVKgDW71OsFZrBpMj6bSosQyExu8B3+sGDRoE063U1QEBIQg6gHi2JlyefPy+8y1sy1qoay9k4ZZNLVDN3lCvp7QAACAASURBVEaleI2W+E/PSTHFM4MEUQpCa+Vgi08USQMrJjnydzMJtn296/sSMjF2A70XpEQfgczMTOX+R2kUb6uU7Eg0S6hLCOMnTJs2DTyw+X6RLFBKyRs+MTr1ffM68+HZvxGu7UtQuPgXeI/tLvKd1Ewm2Gq1g7315bBWbw5L6SrYvWePkpAycRtzwNDTIto2EdHfpZEdgRAEA/FmvoU/dr2DTRl/6doLCcKltZ9C7VJtY/4gDHTitBKnO9P999+vgjWFUj766CN1E+cthzkkYrXwo0o1CnW8FJ0WB4IXq1gHMi5KDRjw6Oeff1YBeXgYUd8tUp2T0aO0i9KV6dOnK0klyTwDfPXv3/8flaZKXLV/EwrmfwfXhj+h5R0LZAn+rWO2wFyxPuxNeyOjehc89/Lrak3onUQpghCE4OAMt7YQhHARLOJ5vixz9n6BZYcnqHCrehW2e32jd1AmoZpeTUa9HbpaMWY89Y2hHpjUmTJgEkX2wYpBIwkAP7BMX8tQ0vSnlxI9BPgu0biX60HblUceeSRmgoZFD5Wz9+yLrcIokvxRukCiQONiEirnlnnI/eEJoDAnvOGbzLDUbIXvshpg5cZtynuEtlVSIouAEASD8d6SMR+/7nhVV4JQxlEDgxq8rmK4F5dC+wN6Y/BGHeotYdeuXSoLJGMoxKqhIn3N6TJH/fYNN9wgt9QobWBfuGRG4SRBOO+881R8A5EaBLYg9MB57bXXsH37dkUSrunXF50S9sE56xPmotKt7HMlYnnVvhhw+4OwOxJ0a1caCgwBIQiB4RRyrXx3Nr7f+DByXIdDbuPkB03oVuU2tCx/sU7tRb8ZX/wDhlbmhzpU+wHqkBmFkaFjeavRuygL7OO5d1RqbvUhZNq+vz+IgYybBxJj4T/55JMxLeXQG7tYas8XLplJlhgrhLYGtNCPVwPfaGBLgsCsqyQHbrcLloXfoNLe2TB7CnUdjlcDnKVroNwVT8Jet4OubUtj/hEQguAfo7BrrDnyB6bteledJeGW0vaq6F//JSRaS4XbVMw8Tw+EF198UYVXDkeMSN3+hx9+iDp16ij/bT0KDxPN6QF2ZcE9dRu0xfugHSsEXN7jxCDJBnPd0jD3qglzm0owpTpgspjP2DU/qiQGF110EXr37q3H8KSNIBEgGSVBY0Iwpj9mQC5KrAIhd0F2VSKqK5XDssnI+2WorpKDU8EzlamOtLu/gdlhXNr7ErFgQU5SCEKQgIVSnfEQft32CrZlLw5L1WAzJeDcKoPRrGxvmEyWUIYSk88w1DAtlR999NGw4jfw4//TTz9h586dSpcczkdfK3TDu+YwvIv3wTtrJ7SMwiIlp0q6YDXD3Lw8zF2rw9yiAkyVUmAyH2eFNIRjDH9Gq7v33nuDjvMQkwsXR4Pi+uzfv1+lPOYaUFLF0L3FIVxyNJfBtWM5sr+8F3DlGT4Ma4MuSBnwMsyOZMP7kg6OIyAEIUI74WDuVkzdOQpHnNthCkFJx/OnRbk+6FT5OjgsxecF4aHOMMmM4XDXXXeFbH/gW0YSjbFjxypVQ0gff02Dl9KCH9ZBW7IfyHYGv0PMJphqp8Hctx4svWoBFjM2b9qk5nn99deroDOi6w4e1lCfIDlbtmyZIo+MMnrVVVcp41BZg1ARPf6cNy8DueNfhGvdjPAaCuLpxEufRGK7/sdVe1IMR0AIguEQH++AKZZnL5uCahcfQoE7E1oQXg0mWNCs7AXoXvW20wKJRGj4hnXDXAQMcMRUrgz4FG5hoCVmRqQ0giFigyma1wvvpqNwPzcbyAqBGJzSGW+t5vNqQLutBT75+nPQiJKqFNF1B7Mq4dUtLCzEr7/+qiQHTPgjbqXh4Xni04Wb5iD3R3os5OrXqJ+WLNWaIXXQazCXqhixPktyR0IQIrD6vMHQ4peGUOf16YYFB77D1swFKPBkFdk7JQ1lHNXRvNzFaFymZ0ApniMwHV27WLRokbIb4MGpR8Q6BnIZNmyYIhsMkRto0Qrc8PyxDe6PV8Dk9gb6mP96moZDta342rECV919Q8AprP03LDWKQoDkjOHHSQ74JyONMohWuKGCBfV/EcgeOxSuFZMiC4k9CclXPgdHU7HhiQTwQhAigDITKb3++usqfzxJAkMwH8nfie1ZS7D+2CzkuI5Ag0eNhIIzs8mGSkkN0KTMeerPUo5KMJvObPgWgeEb1gWJE8W+K1euxAsvvKCLyJcqizfeeEMdBA899FBAbargLlO2wjN6JZCjT9bNE0Fzw4tj1a2o/EZfWJIdhuEpDR9HgHuAkf8YV4PR/ujVUqNGjYD2gmAYGALe3GPIHHUVtPyMwB7QsZat9eVIueLZEBS1Og6ihDQlBCECC/3FF1+ofPKMEnimAD5Odx7yPJnKdc5idiDZWhpmc/ExQjwbxLm5ufjggw+U1wGj1+lVeDAwRCszOwYSMMm7PQPOIdNhKnDrNYTT29E0mLpWg21IR5jsxX9tjQOy6JYZS4OupJMnT1a2HnRhFFsD/VejcM005HwfniFwqKMyl62JtHvHwGSxhtqEPBcgAkIQAgQq1GoUeTPKGPOZMxBLOJb1oY4hVp+jVflbb70F5iPQM6Lg+vXrMWrUKAwZMsSvHYL3YC5cT80E9hqvR6WkwnpXK1guqQ+TRYys9NyXlEYx3TfJIYNR9evXT9kchBp0S8+xFce2ssc+C9eKiVGZmma2Ie3+n2EtUzUq/ZekToUgGLzaDP/LHAG0YK9WrfiERtYDNqoWmFJX76BBlEyQlA0aNAjnnnvuWYeqebxwf70a3h/X6zGdwNqoVQq2xzvBXCMtsPpSyy8CJAdMFc7AR/Xr18eAAQNUngsh436hC6mC5nEj88Mb4d0fwffmhJGSaKdc9xYcjbqHNH55KHAEhCAEjlXQNRmljeSAmQp5YMkH62QI+UHnbY8SBL2TK7300ksqPSxvkmcTMXt3ZsL18lxgZ3bQaxvyA2YTLDc3h7Vfo5CbkAf/RYDJgsaMGaPCJTPL4KWXXqr7XhK8T0ZAc+Yj4+3+0DL3RQcaTUPiJU8gsePV0em/BPUqBMHAxaZxIkXd1157LVq2bGlgT/HXNA3JaJjYvn17Q9IzMxbC3r17cccdd8DhOLNhoPvXzfB8sAzw6JdIK6CVqFsajv+eB1jFFiEgvM5QibfItWvXKvdFRqikCq9169bipRAqoEE8pxXmImPkldBy9AofH0TnrEqCcMGDSOx6U5APSvVgERCCECxiQdSneuF///sfhg4detZDKojmilVVX3hlHuAtWrTQfW5UX1BCwXgIaWmni/N5wLiG/glt6QHd+/bXoGY2wfZKD1ialPdXVf79DAhQMsfom/yReFOlUK5cOcEqQggoCcI7/aFlREeCwHc36dInkNhBJAhGL7kQBIMQ5iZmZkF+uGhJLeqFk4Fm4Ch+4Gl/YMTHfd++fXjzzTfx4IMPokqVKqetspbjhPO2X0OLlBjunmEApf4NYbvlnHBbKnHP0+iXUoOFCxeiZ8+eyvtFYhtEdhsct0G4Ad79GyLb8d+9KRuEa9+Eo3GPqPRfkjoVgmDQalO3Pnz4cNx4441o1aqVQb3EZ7NULzDaIT/sdP00wtI8KytLeUgwQE6HDqdngfOsOQT3Y5ELEXvaStUtDfub54s3Q4BbmHtmxYoVGDdunNo3/fv3NyRjZ4DDKfHVsn9+Fq7l0fFigMWGtPt+hkW8GAzfh0IQDIKYOvDly5erYD0M1iLlXwSOHj2q1C59+/ZVB7gRhSF2mbGP9geDBw8+rQv3xE1wv780apIdLcUGx6eXwJRiN2L6xapN3hgZEZHkgK6LlMilpKREbe2KFbghTIbr4VzLOAiPRmUNzGVr/B0HwRbC6OWRYBAQghAMWgHWpZvdf/7zH2WARwNFUS+cDBwT57z//vt4/vnndQmvfKZl4UeMomhatzOM86liaNeXq+D9fm3Ukr5oVhMcoy+FqWxigLsqdqqpFL+5LmQcyENuRgGyjuRj9/qj2L/5GHIzCtWPWSwTkm1ILZOAinVLo1rjsihVLhEp6QlIq5Ck/s3fe8F+aKtCV1jGOGCSJaoVpEQfgeORFPtBy8+M+GDsrS5HypXPRrzfktihEAQDVn3JkiXK/uCZZ57xG6jHgO5jukn6rPPgXrx4MZ577jlD1As+AJjn4ZNPPgFdHsuWLXsSLq6Pl8H7y8boEQQzjksQKsRPZk63y4vtKw5i7V+7cHhXNnauOYKsQ3nQmLoiwLhPpSsmoVqTsihXPRWNOlVF3TYVYbWd7s1BcsD1Y+AjZvq87LLL0LBhQ4mKGENvd87YoXBGOBeDyZ6EJMnFELFdIARBZ6jdbje+/PJLbN++XYX6FQOqkwEuKChQsSEYyIYZHI0sdDOl9OCWW25R0pwTi+vrVfB+G0UJgt18nCCUiX0JAg/rDfP2Yvybi3F0TzZcBR56moVVmK3X6rAiJd2Byx5uixY9a8BsOZ5vhO/Qt99+i1mzZikVFMlBSKm7wxqhPOwPAefGucgd8zjo9hipYqnWHClXvwpLmmRzjATmQhB0Rpnpi0eOHKl8+zt37qxz6/HfHI03aaBI400mrjKy5OfnKzVG06ZNcf31158k0nZP2Qb3Wwv9irmNGp9W2gHHJxfDlBi7etSCXBc2L9mP3z9Yjl1rjxiHlQmo2awcet/SHImVvfhl4k8qhgVtVLp16yYk26hNGGa73rwM5I57Aa71M8NsKfDHVYCk9gOiJvkLfKTFo6YQBJ3XcenSpcr//qmnngooUZDO3cd8cxs2bFDGg4899hjS09MNHS9vvpRWkLQxHsKJAZO8W47B9cBUIMybcKgTMDUvB9vLPY07dEMd2PE4NNi19jD+GL0KGxfsU/YGkSgWmxkJVQtRpoUb/W7ug1q1akaiW+kjZAQ0uLYvR/ZX9wKu/JBbCfRBa71zkXL1CJgd8aOWC3RusVpPCILOK8PshDyIeEMW9cLp4P7888/YtWuXinCYmGi8eJ3Bqtgn4y1UqFDhnwFpLi+ct04CjhTovAP8N6eSNt3SEtb+xkpQ/I/k9BqaV8PCCZsx7o1FKDAg9XUgY7IlmDHouS5odUGtmCRQgcyhpNRRBqsrfkXez0NJLQ2bNj0XSt35NUyOZNkThqF8esNCEHQEm773dN9jkqCOHTvq2HLxaIoGisOGDUPz5s1VZstIpOH1RWy866670KxZs5OAdL4+H9qMnZEH12GB7e3zYa5aKvJ9F9FjXlYhZn61FjO+XAO30xPVsVGK0fWaRjj/thYoFYeeHlEFL8KdkySsG/0E0rdPh8Ok/74xp1dF0uXPwFa7nZCDCK+tEAQdAWdY5enTp+ORRx456baqYxdx3RRF/TTcvPXWW9GmTZuIzIUGb08//TTOP/989OrV66QPjGf2Lrj/uxAo1P+jVtTkTG0qwv58t5jSox7bn4tJIxdj2ZQdoBQhForVZkbT7tUx6LnOSEiWeBGxsCZnGsO2bdsw+oO3cX2zFJTfNFlXSYIprRKSr3gWttptYTJL7pJI7wEhCDohzvjwPIjq1q2rxOf+fLx16jaumpk5c6YS9xOnE8X9Rk6CtxuqfUqVKqUkOyeqfbTDeXCOmAesO2LkEE5u22aG9YG2sPSsFbk+/fREG4Nvn5uNlX9EQZriZ2xcv0r10vHw15fAnmCNGcxkIMcRYIRLkn6GS7/77rth2rkEOd8NAdyFYUNkqd4SqTe8LWqFsJEMvQEhCKFjd9KTq1evVqF9GTmRVvNSTkaA6gVmtmSEwyFDhhga/+BU7KdNm6biLjzwwAMnu8tpGty/bjme0TFCt2ZTywqwDukAc4yIzfOznZg4ajHmjd1kpAo5rNeBJKHVhbVw5WMdRN0QFpL6Psx1mTdvnjIEfvzxx9G4cWPw7zwHNqFg7jdwbZoNLfdYcJ2aLbBUqAtbk95I6DAQpoRUuWwFh6CutYUg6AAnWTRz0jODIN3qbLbYdV3TYbohNcEkO4xJcN555+GSSy4JqY1QH6LnxGeffaYMFU/N7KjlueB6eW5EsjpqZsD2bFdY2lQOOLBQqHMO5Dm3y4OJI5fgr+/Wx4xa4WzjttrN6HZtE/R9oHXgUZkCAUHqhIxAZmYm3nvvPZQvXx4333zzydI5VyHce9fCtXURCpf8DG/WwSJjaWkwwVqjJRxt+8FWvSUsZarFlAouZJDi/EEhCDosYEZGhrodM+5B7969dWix+DWxatUqvPvuuyq6ZNWqVSM6wYMHD6rYC7fddhvq1at3ct+aBm+hB+77pkDbm2PcuEyA5ZYWsFzZMCZuRDQCXPb7NowZNhcFuW7j5q1jywyudNvIXmjSpXpMECwdpxaXTTGMOQNavfzyy0hKSjrrHGjRouVlwLVpHpxb5sF7eAfgccOUWAqWqo1ha9AVtqpNYbKKnUmsbQQhCDqsyLp16zB69Gjl2082LeXUM1hTqZ1nz56NF154IaLqBY4kJydHkRN6TzCA1anF6XIhc84WOEavg+OI/j7/mt2MY+3TkHBHGySnpigJU7RtVI7ty8EnD07H3o1BioCjvLmTStlxz0cXoGrDk0NnR3lYJa57qgpfffVVNGnSBP369Yv6fi5xCxChCQtB0AFohlbmIcQbqt0uLPhUSPkxIYGioWA0klfRk+Gbb77B/v37la7UVxjKl7cgJteqULY8BrW9ECnvrQWOhW9g5etDgwZLv0ZYWO0YJs+aovYHb1sM/0zDrmgU6onHDJ+HeT/Hrt1BUbi07VsH/R/vCEeyqPKisX/Y5++//w7a9tx3332oXr16tIYh/RqMgBCEMAFmbgEeOldccQV69OghTPoMeFJXydvGwIED0bJlyzARD+3xqVOnYvz48XjttddUgCZfMiB6ODAkc//+/XElb0IFbrienw2Nng1uZiEKsTB5UYoNljtawdKzJvLy8pQNBENN05jr4YcfVkQhGpKEjQv34r07p8AUaIalECEw6rHEVDtuerU7GnasYlQX0m4RCBw5ckRlq6XbMN/paOxhWaDIICAEIUyc//zzT+W6x1C+kdathzn0iD2+ZcsWfPzxx+pQjJR746mToxro9ddfV4c0bzxz585Vag+K+2lDQtWHyvioadByXfBM3wHvjB3QNh8L3sMh2QZzl2qw9KkLc730f4ytli9friQZjLRJt1imL27VqlVEpU4FOU589dRfWPvn7oitvxEdtTivBga/2kOllZYSOQQojRs3bpxSFzIoXJkyZSLXufQUcQSEIIQBucvlUgY6TEd7zz33RFy3HsbQI/roxIkTQU8CYlSUMZORgyIJ4K2nZ8+eihCQIPD207ZtW/X/9evXP7l7Gi8ezoe2+Sg8EzbDu7JoK2wVZTbdAXPf+rC0rQRT9VIwOU7226erJ9UcVDPMmTNHERQGjLrpppsiRhLWz9uDr5/6C7k6qlGMXLeztW21W5QtQu2W/4bPjsY4Slqf+/btw5tvvqkybHbp0qWkTb/EzVcIQhhLvnnzZiU6v/POOyMWGTCM4UblUYry6d7IzI0U40civPKZJkoyx3Fs3bpVSTGoO61VK/BY/5rTA++6w/AuOwBtZyaQ7QRsZqBcEsxNy8PcphJMZakyCAxm4kLPDtqv0Ebj3nvvVUG2rFbjggF5PRomjFyMWV+tDWyQMVyL+DXpVg23vdnrnzTRMTzcYjO0X375BWvWrDkt+VmxmaBM5CQEhCCEuCF4G5w0adI/lvmSr/7MQFLnzsiJgwcPjlp+CtqJUCT6008/KfE+yQEP41jQnfJGxhDdDLTVoUMH9OnTx7AsoHlZToy6+Vcc2JoZ4q6PrccSUmy4//M+qFzX2KygsTXr6I2GeU14IaK9FaUHsfD+RA+NktGzEIQQ19nnOkeDM+atl5flzEDSRuP7779X8Q8qV64cItqhP8bbOSO90QahW7dumD9/vop2WbNm7KQSpnRjxYoVyj6BRJMqh4YN9Y+XsG7OHnx8/7SYD4oU6GqbLSb0fagtelzXJNBHpF6ICPBCRFfho0ePKlui1NTUEFuSx+IJASEIIa7W9u3b8fbbb6vDplq1aiG2Urwf40flww8/BG8elCIYKT4/FUlGt+QakRxQHH399dcrqcFTTz2FG264IeZUQhwjo00yMh3xom95+/btkZycrNsm+XHYXMwbu7FYRSJs17cOBjzVGTaHJPLRbaOcoaG1a9eqYGOMmHjuueca2ZW0HUMICEEIcTHouUB9djQN70IcesQeo/HfiBEjlOj8yiuvjFi/tLSmWyMzazZo0ECFdvZJL2hUSldLBkyKRakPJR6Uuvz666+oUaOGGjsNKMMdq6vQjZf7jcOxvbkRW4dIdFSrZXnc9Ep3lK6oH5GKxLjjqQ+q6D7//HPQXZkXIon1Ek+rF95YhSCEgB9d1Hx+wNQZh/vxDmEIEX3EW5ADz8EtcG1bDM/h7SpsKjQvTPZEmJPLwlLjHFhrtICldJWTsKBYn1KWJ554Qh12kSgkJZ9++ik2bdqk3Ai7du2q7A58a0R1R1ZWlko5fWJmx0iMLdA+KP2g7cZXX32lSCjncWqq6kDb8tU7sC0Dr/YfD28YoR2C7TMS9dMqJOH2t89D1QbibmcU3nyX3nnnHTz44INBGfYaNR5pN3IICEEIAeslS5aoQ4hZCSm2Lm5FK8yD5+hOuHeuRMHSX+A9uBXwuJQnH+MEnFp4+DLZiikhBbaG3eFocREs5Wpi2eY9mDZ9RkSyN1KdwXgLjA3PwEfU49Nz4lTyxsiJvJ2T4JE4xGqhyoG2CXSFZNQ6SkLollmpUqWQPEFWz9qJTx6YXuzIrD3Rilvf6okG7SVokhF7mWSV5IDBxWhoLNIDI1CO3TaFIAS5Nvxo84Wh2I0EoTi9MJozD851M+Hc8CdcWxcClBSEUDSTBZbytWGu1wXu+j2QXqe5oQcTQyUz7Ct/LVq0UD7aZ8uJwRs59fwkCPEQ5IUf6PXr12PKlCk4dOiQkiQwYmew9hwzvlqD8W8sMnQdQtgqYT/CQEmDnuuM9n1PScIVdsvSABFgmnS64tKVW9LYl7w9IQQhyDXftWsXXnnlFQwaNKjYBArhbdWbeQC5E4bBvW0x4HEGicpZqpvMQGIpJHa7HQkdBsBk0d/HnyGMGaWRXgBUG7Rr165I0sZDduTIkcoIsHVrpg6O/cL1oVSEJIFBp5ggh3k/Tk1dfbaZUOgzadRiTP98TexPNoQR9n2oDXrd2CyEJ+WRohAg8WbsEBph33XXXUGTUkE3/hEQghDEGvJD/ccff2Dy5MkYPny4rhbmQQxD16regmwlNcj79TWgIFv/HOwMXWw2w96oFxJ73Q1rxTq6jJ+SHOpGmQQqJSUFN954I2rXru33hsyDlp4V6enpSg0RT4VqFEoTvvvuO/C/GXiKtzp/UizNq2HsKwsw58cN8TTdgMfa+7bmuPieVn7XPuAGpaLaXzNnzlSxQyhtE0+tkrkphCAEse5UK9BtjjH7r7vuuiCejM2qND7Mm/YunEvHA64CgwdpgrlifST1uhv2Rt3CIiIkByRpJGudOnVC7969VXTEQIxF+eEbM2YMli1bpkherBoqFrUY9EWnlwY/4PQQoadDUWnGSRC+f2EOFo7fYvAaR6f58q011O7twAUXXHA8n4aUsBGgIe+oUaNUYjFJ5xw2nHHbgBCEIJaO4mm6yTEsbiC31SCajnhVzeVE9ncPw715Hi0PI9d/YhqS+z4JR9PzQyIJ2dnZKiMj14IqBSY7YvjmQMiBb5LMw0Cix+RN0Uq5HC7gtE3YvXu38k3n/Ol+djZPERKEH4fPxfyfN4fbbUw+X7m9GRs9s5TRKYk7SWMw+yEmJxXlQTHyKNVZ9ECitE1KyURACEIQ605rchrtMFRvqVKlgngytqp6c48h97c34FoxOaRDOtzZmEtXRdIVQ2Gv0y7gpnjzZzbEH3/8USV8okV/qNEGd+7cqTLRcR2ZLCleiy+4EmNyLFy4EBdeeKFKRnWq8SXr0UBx1jfr4nWqRY774v87B50G1VWhz+mlwgON0U3pxULreynBIUDpAaVrnTt3xqWXXhqXUrbgZiy1z4aAEIQA9wbF2s8++6wybGPQn3gUTXOqmseF/JmfoGD2F/oZIwaI4T/VNMBUpipSr3kD1koN/D5NQ0QegkuXLlUidR6ENNAL9ZZIVdHjjz+uPoBXX3213/5juQIPfwZXWrlyJSZMmKBu0bRNOMnFUwP+99Fy/O/9FQEnk4rlOZ86tque7IAuAxuBUhWSv0X/3951QElRbdvdaaYnMcMwwJCTgOQgUaIKKIIgJgwIZsWEOcsTMybQp8+AYniiIvAERUkqkgQEAQEByXFggGFy6lR/7SvtRyR0T6eq7nPX6gVK1Q373Ko694R9VqxQ1TppUaHbgUGdkSoSZiQcOVevC44KJ0vYM61WWuwiIAqCj7L3Uo0ytZF+OaM2x85VKPr49sgpB17gNE0RLKUMex3mhJNbY+hvf/vtt1UthTvuuEMpCIG+7PlRJa88FYVRo0bBZrMZVZx/mzdPfuTnoJWLfuPBgwf/FXn+y9db8dnoxRVWqvQKkMVqxoiXe6FV7/8n4qJ8WVabMibdNmtwkF5brAmnlyLdVnSjMq4lFkjgTo9IbF8hCoIP8ufJhKl0WVlZKqLXqJUb3QXZKJh4C7Qje3xYdRguscYj4bw7YO96FUzmv3PpewsY0XJAdw6zFEiXXFGrwfGrIZ0xSYio8Bk1DuH4NfHDSJrp+fPnK04Inv5oIiaZ1661h1UlR8DHetRhEH8whkhMjQeZFOu3qvqP7vjcktSM6aGsb3HBBRegQ4cOPge0BmN+RuqDe4dZCyznzJolRn3PGQlzvc9VFAQfJMTTCAPjaNqmydKITXO7UDJnHMqXfa6r6Zur1EPKde/Aklr9r3kxEJHmctZS4CnmvPPOC3qgFD8YPCmxlgZZCqOpE6CQAwAAIABJREFUUVGgqZ1BZkyL7Nu3L87u2BOvXjEL5cXOaFoqMhul4YZXe6NqvdQTrotYsIYALYDMfOF/M4iRz/Lp0kOjCigfFsP3HINe6XYzcmyOD0uVS3xEQBQEH4BasmSJyj1n4SHm3BuxObM2oeiLB6DlZelq+nxhJ/S+GYnn3a5e3iyjPX78eOzbt0+VlQ1GoaITLZhjMUKbrIvRWp2Oa2Q0OgvtEEfr+jOx7/d8Xck/0Mk071kbw57tgYSUuFN25Y3VoJLAHwMZmQXDQFejxhMFit2x9xMf7hPWABk5cqRh33PBxET6AkRBOM0uoKmbDw5N23yhBMvEHdbNp3lQsuhjlP34H8DjDuvQPg2WkIpKt32GjXsPK1dO/fr1VSAo/wwV3nwhknKZ/AkM6gvVOD6tP4QXcZ0klKJF5o8fcpC8/8yo8TKQZvmc4c0x4M6zYLb45johHnQVUklgXAvjiRisSitSLFsUuEeY9kvyMEkTDeEDabCuRUE4jcBYHZCm6GHDhqFVq1YGE++f09WcZSj4+A64d6/W5fz50k684AFsS22jgstIl8y4g1B/tFm0iaZnWioCDXzUJbBHJ0V86bZZtWQdvnt2O5wl0VHS0RpnxvWvnoPm3Wv7DT8rstINM3v2bLUHWrZsqejTjVCfw+/FnuYGBut668vwWWAasTRBgAiIgnCafUATLfkPWOrUqCxtrgNbUPDuMFWRUa/N2qAjkq8ep0pIh1ox8GLA+g2TJk3Cs88+GxOnR2e5C/99dCHWzddJkGqAmzG9djIe/OIi2JNO7V441TBUnmhJYEEiKqd0OTHOKCkpKWz7MEAYAr6dgZy03DGtMRqr0wYMUAx3IArCKYTPqF4ShjRs2BBXXXWVYYuVlCz6CKVzX9f1C8+cXgfJV78Ga7Xwlc/mCZJ0slT+YoFrnh/DZV9txlcvrYCzXIeuJj9fxIPvPwu9rmkRlH3NwkQLFixQREvEiamRzHhIS0vzc1bGupwcGu+8846yGtCFGs2WNGNJRh+zFQXhFHKgX46VG5l/T0pfIza+7ArevwHuPb/pevomewqSLn0GcU17hm2edB/9+9//VtwKRs1O8ResnL2FeP+eH3FgW8VKefs7Xqiur1qvEu79dAASkituPTjR3BikRx6JadOmqbRaponS5RUuq1ao8DpZv+vWrcPHH3+s3nGkj5cmCByLgCgIJ9kP/LB++umnqozw008/bVi/nKe8BPnjLoJWkqvvnW+xIfHCh2DveEnYcvVpIXr//fdBgiGaV6P1I3Cs4Lmv57z3G+a8o2+F8VSblQGJg+/rgB5XNQuJzIgR/fL8cNL8zmBZEi1RYYgWUi3iS+sB321nnHGGqmERy0Ga+n45Rm52oiCcBPucnBy8+uqr6NSpEy6++OLISSjAkd25WcgfPwjQdB6YZjLB3vtWJPa+CTCZA1y177eTv58/5n/HSnBWYU4p3r59LvZvNqYVoW7LKrj2hZ7IqB3aeihUIBmfwDgkWhPbtGmD7t27q5O20U3x3tL1JEZ66KGHJPbA91dGTF0pCsJJxM2TA9Mbx4wZY+jIZlfWJhS8w9LUYazYWMFHKL7rNUg6/x7gOFbFCnbn023r169XWSo8ScVSgNbWFVl47+4f4SwzWCyCCRg6uis6DWoMs9m31EafNsIpLuJJe+vWrfjiiy9A6m+mRfLQwEBGozZWQx03bpyqU8H4KuGCMKokQztvURBOgC8pWkmMlJubq0o7G8n0TJcI0/d4yiEJTD1bEbQvRxmAYFdDfMfLkTTgIcBsDe2uP6Z3ypipXUxjJWNjrDRmNHw9fiV+nrIZHrf+lUfKxWQCSIx03cu9YbX9nZo7HHLje4HWhOnTpytKa5rlW7RooUiFjPSOUG6mOXMwb948dQAyKvlbOGQe62OIgnCCHcDqgc8//7wqWELSEL03PvAMuGM+N3nUly5dqvyLrOg3rM9ZSJv9pN6XoOYX32koki68P6wKAl/6rNLJTBWSxMTSSergrnxMemIRdq/PMcT+qN+6Km54rTdSqkQuT99bCIrPGCtGVq1aFT169FCBjEaJTyBbKanju3TpoupTGEm5McRGjaJJRrWC4HZ5cHBnPrauPID9W/PgKHPBajOjxhmV0bhTJqo3SAOrwR3bqFmT5pc+R1b603O5UwZSMQqZxXlYhY0Pfr169RQpDn2kLESUrhWg8D9XGsLFYO8+Aol97gyri4Gynzx5MrZt26bkbWSzsb/vJX7s9m0+grdvnYuSfIe/t4f1+vQaSbjq6W4446waumCCpGLJjAe+L2hVYGlpmuqpaOr1g1taWgrGVtF9yh+to2QSlSYInAyBqFMQ3E4PDu0pwNr5u/Hzl5tQmFMGKgrHN0ZCJ6TE4+zLmqBt33rIbFRZKQusHjhlyhT1oWDRkj59+ujigefLnA84TeJ8MfGlxAAqRh6T/Y3BlDwR0FxINwOpYxl05yk6gvzXLtQ1SZKSjcmMhL53IaHbtWENUiSuf/zxByZOnKgUhFq1asXU24Lr3/ZrNj59fBHyD5bocu32ZBsue7Qz2l3QMGxxB74C4fF4lHLJ+AQWACN/Ai0KtCxYreFzlfkyX2/cAfk/zjnnHOUikYqNviAXu9dElYJQkFOKn/67Hr/N24Xc/cXQfHGtmoDUqglo268+ug89E79vW413331X0SoztSnSBDreAClW5eODvWvXLqSkpCgO+Tp16ihFgAoCX0bekwtf+n/93e1E3utDdFek6R+PnM2OxEGPw95mQNifRrqUnnzySVx//fWKcjfWGhXodfN346uXf0HBoVJdLT8tMxEX3dsBbc+rB7MlfNkt/oJA5Z2K+U8//QR+iKmsM6ZFT9TNZIpkYCKtjazWyP3OolXSBIGotyAc2JaLz0Yvwd6NOb4pBscjYjKhTrPKaHlZGn5aMQsPPPCAengiYS5Upt99+zBr1iwwyp4ug4SEBPXCIbsbKZ+p+fviL1c8/FMeg2v9HF0/BabkDCRd/gLiGpwV9nkSIzJmMt4klgIVjwXa4/Zgz4YcvHvnPJQW6IOSO7VaAoaOPhtNu9Y0RFqhlz9h7dq1+Oyzz1QgI7MdeFrXgzWBRapYKZWZC5dccok6aETi/Rb2B1wGrDACUWFBOLA9D188tQS71h2uMBDeG1MybRgxthcataoVNl8nK0bSN3jw4EEVZPjLL7+ApkuePkhiwrQqWjKOtRL4s9DydXNRPOURf24J+7XmzCZIuWY8LKmZYR+bA5KLn35lnqpitakAvG15+N9Ly7F91cGIZTeYrSbUapqOIQ92Qv1WVcGqjUZpXusdg4a/+eYbrF69GhkZGYqRkc9yRbk2nB5gX5kHu0rc+L3AjcU5bvxW4MYhh4YyD9ShiOFUdrMJDRJM6FDZgt5VrKibZEbDRDPS48x/uSeZzmt0HoeI7AdNg1biAnJL//zTfdR1bTPDlBwPpNthigt/dk0osTC8gpB3sASfPLwAO9YcDBpONRqnYdhzPVGzcejMb1QAaPLjC2TPnj3YsWOHOnFQu2egIX9UCmgpCFTLdxccVMWatMLAFaiggXxsR5oGW7tBSB78BEwWW0iGOF2nNA2Ti3/06NEB4326sfT87/zA0T23fMYWLPx8I8oKw2tNSKgUh66XNEbPq5uhUkaioWXBZ5wuwSVLlqgf3YK0JtCN5eszzQzU+YecmL7fieW5bmwodKPMY4IvtGf8VFWJAzqmWdAuzYJhtW1onGyBmfmi0nxHwO2BZ/MRuJfug7avENqeAmh55TAxts0EaPEWmLhX61SCmYHv3WvDVD05bAdM3xfi/5WGVhDoO/3sX4vx63fbYQpqpr+Gsy5shMsf74L4xOB9sLyBhgsXLsSPP/6ofJV0E5ChrX///orKlQoBtXtfXyC+iFxzO1H0v6fgXDfLl8vDfg1xSRn2BuKa9gj72N4BmSLKinas7BhLmQwnApzy8Hg0ZG/Pw9Tnl2PHbwfDwrNVvUEqrn2hBzIbpsESAZ6DUG0+WqYYXPzhhx+qVOTWrVurwkgsac6y00yPPNHzvqHAjbvWluDnXA/KaSUIYIJmaEi3mXBbAxv+1SQBVosoCb7A6Sl3wvX2angW7YHJB1IxjbBWioP1qhawXNgIJh3HzfiyfkMrCJt+3odPn1iE4txyX9bq1zU8yZDOtdnZFY9q54uBpkZGNzOmYNmyZcpqwBiC6tWrqyJBPFUwviC0Jj8N5Wtno/jr5wCH/iLVzZlNkXrThzDF2f2SUTAv3r9/v/LPkjCJAarS/kSgvMSJVXN2YOXMbSpVuLQguOmQ8Uk25U4468IG6HBhQ8TZrX8yIkVZo9JFVyLdhz/88IOq/0Frwpo1a3DRRRcppcGrJOwp8eDLLAfGbinHIb7aggqHhmbJZrzY3I7zqtqQZA1q59EjNYcb7t+y4XrzV+Cw/4G7GjSY2mfCdkMbmOunGnZPG1ZBcDncmDZ2OZZ9tSUw1foUW7p1n7q47qXefp3m+SIgHwEjmnlaoGJApYB+P3546DZg9gEDhHwJMgzWE+cuOISiLx6Ee+/aYHUZnH4sNiRdMRZxZ/byC+fgDP7/vTCTgZUdacUZPnx4sLs3dn8aUJRfhl3rDilrwqrvdiDvgI9ZQidYOZ+RpPR4dBzQCA3bZaJhu2pISouPqPzDJSDv+4EVI8l4ysBBEpqNHDkSVTIy8MsRF57cVI4fDrl8ciNUdN4ZNuCaOjY83ywBiaIk/A1Gysg9Zzvcn64HAjl8UvdqkAbrqA6wnJFeUVFF9D7DKgj5h0swbti3yM8O3YnYYjPj0ekXo0rNlNMKifEDTEWcMWOG4m1neiLjCBic1LZtW2Ul4AkhmK6D007quAvK1s5C8ZTHIjqH4+dsPbMnki99Hub4yLHjcU70F7N6p7c2QziVN3/lGMnr+fJ0OTzI2VuANfN2YsU325F7oMiHWmAa0jKTcFb/hlhzYD6sKR48+ND9YVWSI4nb8WOTy4QWq+3bt6vnkVkFLfsNxrlLipEVfIPoiZeuaTg73YKZXZJQOU6/KaThlptr1QG4xiyCyRWIU+forBnYmBqP+Nf7wlTNeLU7DKsg/L5oDz4YNR98YYWuaSqSuufVzf8xBPOemU9M6wDZDKkckKSIzIusgcA8Y6ZJ8kNzLC9B6OZ6+p5VLMK00XDqJOXRlJSOpCFjYGt8ti6UFgYpkjCJVTwZeS7t1AioWAW3BtZ1KDpShiNZxSgtLEdpoQNOlxMb/liP1etWoOs5HXDh4L5Ir8rnwYy58+aqFF5yT+iJJyCc8qb7kVYrxiCUOZyYne3Aw1mpyAlvTCgYm3BRdSvebJ2I2omiJHi25cL5xAIgiK40PifmTjVhu7cTTKnx4dxmAY9lWAVh5hsr8f3E9SH/sLQ6ty6uf+VPNwN9iKRgpnnQ6zpgQBu5CUi1SvcB4wsqmo4YsDRP04EyneVloXjKo3DvXR/q4U7ZP+eScN5I2LuNgNmmj4eGRFSPPvqo4sBo165dRPEx+uDegNxVq1bh22+/RWpqKi699FKV6sdnh7wTd9xxR0wSUx0v24WHnbh5TSk2F4fysHPyHWUzAUMyLfiwfVJMuxu0Eiecb6+C9uOu4D9+dgsst7aDtW8DQ8UjGFZBeO+u77Fx8b7gC/K4HjMbp+Kqlztg/k8/qOIstBzQXcC68H379lWUqkYyR/PF7fhjEUqmPwWtJC/k+J1sANuZ5yJ56FiYLPrJG6Zb6J577kG/fv0wZMiQiGETTQNzvzFb55133lEpf1deeaV6dlggizTmfIYi6XaLNNalLg19fi5SmQoRbZqGUY3i8GqLBFgMxDsRTMzcGw7B+dzPMOWFxsdjapEB2zO9YIrXzzvvdPgZVkF444bvsGP1odOtL/B/Ty5FXNedqFotQ1kI6DqgtYA1EIz6YtM8bpSvmoHSuW9AKysIHCN/ejBbYG3SHUmDnoQlWV+BO/yYvfHGG8oCdPPNNysZSwsOAlS+5s6di0WLFqmCRswaYYwO6cyNUgUxOEj8fy9lbk2lMX6w2xVQCmOw5lXJCkxok4DLasUhFnUE5yfr4PlyY8iC3slkZX2+FywtqgZLZCHvx7AKwlu3zsbWX7JDDlB67UQMf6MLqmVmBIW0KOQT9nUAKgkb5qPku5egFYWJQEnTYG3aC0kXPghL5Zq6NLWRMIm/u+++O2b9475uIX+vo999586d+PLLL1WGT+PGjXHfffep2J1YbFP2OXDNryVwquT5yDfOome6GZM7JqG6PbbiEZRlddQ8YFsIraqMRRh4Bqwj2xvmcGlYBYEESSu+3hbyp6pR+2oY+d75Krgq2pqmeeDcugzF3zwHLe9AaEtCW+MQ13YQEi98AGarPk/mXnP42LFjcdddd6F+/frRJnJdrIeKAlP8pk6divbt2yt661irC5Bd5sHQFcVYcCTCroXjdgTfcm+1tuO2BvqICwrXhtVyy1B+47cwlbtDO2RmEuLe7Q8TebEN0AyrICyZ+gemPLc0yAyK/5QYKV+ZyRCtTQUuHtqO0oUT4dq8GFpZYdCXaq7WCPFdrkJ86wthjiAZki8LYyAq/eMMqKM7SVpoECCzILNFjhw5opSDQYMGqZLlseJuoPWAgYn5rtDgG0ivjRNN+LlnMjLijfERq8haSV7HMu88BNSsWROmLXlwPfhj6NwLRyep2S2I/3AgTJWMoYAZVkHYvy0X44d/BweLZoSokQ3rjvfOR+OONUI0gn669ZSXwLljBcrmvwfX/o1BIW8z2VMQ33ko4toOhKVyLZjM+g/OIR/Cm2++qV4c/GhJCw0CjElgSin5Q4j1999/rzIcGJOQlpYWmkF106uGK34pxpT9IT6tVnC9JsbitLLjzkaRYzat4NRPeRtTSplaytT0X3/9VTFaUjmtVasWLqrVCQ0mZYfe9G8C4j4aqGo3GKEZVkEoK3Lgg3t/xNaVoYtDqFqvEh76chCsUVah62QbUyVZuV1w/LEQZQveR3nOXhwocKCm3QGfzhIkgrLGg4qBpUFHJJ53O8xpfypXRgnopEWFZFcsnnXvvfca4Rk25ByJ89dff63ox59++mls3LgRH330kcoIGjFihKIgN1J2kD9COFjuwZnfFyE3GEQ8/gzsx7Xd0i2Y0zVJ91TMygLqditFk9Y//sn/ZrYZq+OSiIqp6fw7lQM2774qLCxUcWUs8T6kQTfg6aWhf0+ZjyoIVURB8GM7+n8pi8ks+nwjZr6xCqRdDnZjydmBd7fHOde2DHbXuu9PBeyUFGHGJ29j44YNuL1HXcSX5sCTtw9aST40Z9nR+rJWmGyJMKdWg6VybZhTM2Gp0RTWBh1hTq4S+octREguX74c06ZNw/PPP68yGqSFBgFyJDD9ccyYMYpgjG6HmTNnKpryjh07qhc304ijrb21rQx3rivTZZCuF+sa8cCMzknoWFkf+58ffSoA+fn5yi2Vk5OjPvjFxcWK2p7MlPyxxgXr2pCfhkR15N9gWrr3v7mfyFVDJYHPON1arINh3lMEF4MUQx0SkmxD3MQBMCXpMw7r+GfNsBYELoQUr++P+hFZm3OD/g6p07wKho/tiYzalYLet947pJmdJt/PP/8cldPScO+ou1CrWjq0smJorjLARbo3DaDLwBIHU3wiTPFJMNsS8Gd+lD6isiuKM6my33rrLdx///0qtVVaaBAgPwLjPa644gr07t1bDULXA1lJ33//fVXt8Oqrr0aLFi1CM4EI9OrRNJyzuAgLdRaceDwUiRbgzVZ2XFcvPuxPMz/8/NjTisesF57+qQSUlZWpH/cIf3QPULFk2izjCMjKSWWAVgHvj6nKVAaOp7nnO459eSnwSZLkuGEmEOry5k3SEffquTCZfbLJRmCH/n1IQysIXMr6BbvxySML4fShFKevaNviLbjssc7oMPAMmGMwIZgnOfqHecLjQ3fLLbfEVIVDnlAYQMePFol8pIUGAZ4IyajIyqa33XbbXxYnLwsjXQ5r165VsSA9evRQHwSjt8PlHjScV4jC4Bs9gwoNVfyHzojHs83tCEYtJ68bgB92xgJQ9nQDsNotCbSoCLBwFc3+/HgzWJXWO/5JuXOPMFaF3Bm0AvD/8d+9VXADdWGqapujF0JbFTqXNQ9V5hGtYL28mWGsq4ZXEDxuDxZ+sRFz3vkNZUWBE5mzQNN517VEnxtawcbSszHY+LBQOfjPf/6jTnDNmzdXVQ5jpfHlxUBF4sA4hEBfPrGCm7/rJL5TpkxRLoVHHnnkHwoAT5KMUWBKJE+KLHzGOidGlseaPBc6LiyGjsMP/hLjtbVteKdtAhItvlkElWvS4VCnfboAeNCgS4CKAF0BVAa8/58KQ2JionIB8EcuDJ7m+eGna4BKAP8/r/EqAl5lwN995uv1rm+2wD1hDeAOEeV1kg22V86FuW6qr1OK+HWGVxCIIIvFLPpik1ISHGUVz2pgMOL5t7ZBr2HNYbWZDf0iCmRneQPIFi5ciBdffDFmUs+Oxex///sffvzxR7z00kvqJSUtNAgwOJGKKBUxmoqPbzxN8qPiJVciDfaAAQMMGxvy7QEHBi8vgTvshnv/5dcvw4LJnZKQxmINxzTKxBsPwLoaPP2zjgktb1TqvC4AKgH8uNPnT1cdLQBU9PjhP9YF4LUWeN0AkVIAPTvz4HxhKbA3+KnehM/Usw7i7usE2PSfzeUVd1QoCFyM2+XByu+2Yd6EdcjdX6SqzPnaTGYT0jITcc61LdD1kiYxk7VwMnzom6MPmNr88OHDY1JR4ql23LhxykfeoEEDX7eSXOcnAjxdPvbYY7j88stx9tlnn/Bu78mUVM1z5sxBo0aNFE9FnTp1DLc3v9j7J3uixwAKQsckF96tVwhzSb6KA/C6AWgZYLYAT/ReNwB9/Tz5n0gRoAIQ6tO/n9vuxPvM6YZr0np4pv4RfD6E1HhY7+sESwdjWWKjRkGgxPkiyd6Rj1WztuPX77ar8rOnauQ5qJyZjLZ966HDwEao0agyzD6a04KxIfXaBwOEXn/9dfUSbtu2rV6nGdJ58SXIqo5MuevZs2dIx4r1zhnvwfom3G+n+pDwRMrANVaHZC57r1691I+maaO0j3Y5cOOa0pAHywcDj1rF+zHot09RPdH2l8mf2QD80QpAhYCcFbSwnSwYMBjzCGcfnsPFcD6/FPjjSNCG5XfJcklTWIe1hMlgbuuoUhC8EnW73CjOLceejTlYPWcHtq48gMKcMmVVYPBocnoCGravjnYX1Efd5hlITrfDaiCzT9B27kk62rZtm0o/48mOL4FYbDSjjh49WuXjX3XVVYY4AfkiJ4/HjVJ3IdyaC2aYYbemwGq2+XJrSK7hy3PWrFmKB+HOO+9EfPypGeZ4Pc3YCxYsUG4HpqhRiaMZ2wjt8z0ODFtlDAtC50rAF62Bagl/BgwyGyBYQYF6lpXnUAlcT/wEbW9RwNOkHdt8di3Y7u0EU2LknrOKLiQqFQQvGHyZsLmdHsWVoHk0lXvMWAMVY2A2KatDpHxeFRVaqO9jiiOZxkaNGqV8hbHamObJqoOMsDdyHEKh4xAOlGzB5iMLsb9kExzuYnigKZpyi9mGdHsdNE3rhVrJLZBurw2zKbw+UioHH3/8sVJImdroS+NzS5P3f//7XxUUxzLSVOb0bk34Zr8DQ34xRgxCnwwLppwgBsEX+Rj5Gu4tz6YcuN9dDW1LACn0/MZQOWBxphRjUCsfL7eoVhCMvEkjOffx48erYCL6haOVzc4XfNetW4cvvvgC99xzjyEJe9weJzYc+REbc+fjcOl2uLWTZ/mYYEZKXDU0SeuBVhnnI9kWvhM5efG551i0qUmTJr6I5q9r6A5jMC0DSukOY0okI+D1qvSvyHXh7EVFcOmkguOpwL6yphUT2iUiORh5jn5JVQcXezR4duXB9fUWaD/tAfwl40uNg3lwE1j6NoA53TguMFEQdLD39DwFRiA//PDDuOyyy9C9e3c9TzXkc2OKFmmAR44cqeoEGKk5PeX4OesTrMuZAw3+JN2bUDe5LfrVvQcJNt9O84HiQgvA22+/rZSDwYMH+90dYxP27t2r3GLMo6fFp2VLfTKgZpe50XBeEUpCzdjnN4p/v4F5C/c1isMLzRNgMwanT4Ar/uftygLt8sCz7iDcH/wGbWfBacfQLCblUrCOaAlT9RRlpTZyEwuCkaUXgrlv2LBBvaxPlnYWgiF12yWVJaY5nnvuuejWrZtu53n8xDyaG8v2f47Vh7+G5xRWg5MuSANqJ7dGn7p3IyUu9JYEfuAnT54Mxr48/vjjFYr34MucaXaso7F69WqVEUGSq4yMDF3JzenR0G1hIVbk+55lFYkF2M3A+JZ23FI/nl7Z2G6aBs3hgWdHLjyL90LblQ+QmM9NLc8EalCmZBvQtAos3WrBVD0ZsJoNkKdyerGKgnB6jGLmCr5k6XenT5hWBJKXxHJjKhd944zQZpVBo7T1h+diUdZEuLTygKbcNK0netW+FfGW0PNA0E0wadIkjB07NqBqjiTqYYoqyZXoZujfv78q262nNLsX/ijDY5sCk01AgvXh5mpxJkzrmIDuGcYLrPNheRW/xKNBc3kA8u14U+njWIHJChNdMVGmTYmCUPGtEnV38uVKkzoJTW688Ubd+nHDBTwVJubek82PGQ169Wsfi8eRsr34YvP9cGuOgGGymew4t87taFK5R8B9na4D0u1y791+++3qgx5Io9zotvjkk0/AwlskVhoyZIhS9PTQ9pS40fSHIpTq2M3QLtWM+d2SkXocSZIe8JM5hA8BURDCh7XuR6Ifl9z41113HTp37qz7+YZjgmvWrMGHH36IZ599Vve1ALyuhV8PTQsaNA0rdUW/eqNgM4c2CpuESU8++aRSDpiREAxljBagpUuXKmsC03UZwMhYkkhX6KQCM3BZMb476E9sSNBEevqONA3PN7fjkSb2qDCCTiD2AAAgAElEQVSTn37BcsXJEBAFQfbGXwjwZcpTF8scxyr/wfHbgUoTiXwYYc+cez23IucRzNn5KrJKNgRtmnZLCq5oPBap8aFlgONHc8KECaqK33333Re09FryWVCGs2fPxvr161UBrgsvvDBo/VcU6E92l+P2tWUo1qGOwFLPK3uloGZCjEYnVlSoUXifKAhRKNSKLImBYlOnTsWWLVtUoFgwTnAVmYfe7mGRmZdffllF2LNwlZ5bdskWfLvjRRS7gskCB5xf9140TQ8tmyQVhJUrV6q0UjJYBrs4GBUFuhtYIZJpkAzCZaXSSO3zXSVuDF1RguV5+vIzMB7xuTPj8UgTBifGenSinp/28MxNFITw4Kz7UchOx+yFxo0bK1OstD8R4Iflgw8+UKdQmsAjbZ4+lVx25K/E7F2vBByceOwY/HC3r3oxute6LuRbgtX+WPuC1ppQUHxTlqRq/vrrr5U8zz//fFVGOhLkSuRsm7irHLf+VqYr2uUOqWZM7ZSIeonhJcsK+eaSASqEgCgIFYIt+m46dOgQXnnlFdx0001KSZD2/wj88MMPqiwx4xD0ljZ3rJw25y7GvN3j4fGL9+B0ktZwZto56Ftv1OkuDPjf+QEnxh07dsQFF1wQshMsrUJ0p9HtUL16dQwdOlTVggh3K3J5cPXKEnyTrQ8/Q+LR1MYb6sfBItaDcG8HXY4nCoIuxRL+SZH/gLS1TG9kARZp/48AS9mOGTNGUU/rOQ5hS+7PmLt7HDyoeMnz4+VOC0Lzyn3Qp96dYdkSTLMtKChQWTShtNZwXXv27FGlppnxcM011yjFJJRjngjAPIcHXRcWY1NxZF0NdCZcXtOKT9onIl4K1oVlrxthEFEQjCClMMyR8QdZWVm45ZZbIh7AFYbl+jUECZMeeughdaoN5cnWr0md4OLdhWswa+fLcHhKAu3qr/v5Ie2SeTU6ZV4RtD5P1hHHWrFiBWbOnKnqMoSjDghda8xyoEWhVatWihQrnGWkueaZB5wqYHFvWWTIkxiK2KeqRSkH1cmQJE0QOIqAKAiyFZSf/ZlnnlGnY1Ld6olURg/i4Uv8jTfeUMRRw4cPB+vb67EdLt2F73aORb5jf9CmxxoNgxqMRp2U1iEz+R87WRZgevPNN/Hggw8q8384mtPpxPbt25UFjVwg5Ezo0qVLWNbL9Tk8GibvdeCGNaURqdHQPd2MCW0T0TTZEm08P+HYPlE9higIUS1e3xZHilpmLtCs26FDB99uiqGrqCCwGBCj4FmS2NeKg+GGqMxVhHm738DOwhVBG7pSXCYub/wiEq2pQevzVB3l5ubi3//+t0pH7NkztJkTx86DMmYmD2NNfvrpJ3Tq1EkVK0tJSQmLouDRNHx7wIUb1pQgxwGEw5bAMgEtk02Y3DEJTZPNYVlnWDaRDBI0BERBCBqUxu1o8eLF+PLLL/Hoo48GPb3MuKj8feaMfn/33XdVHEKwU/CChZEGDb8fnof5+94OSpcsB906YyC61RwOi8kalD5P1wlP8xMnTgSJk4h1uFPtaEEgOdasWbNUKXiyMIaLqplKwpxsJ0ZvKsfK/NDGJCRbgEtrWPF0MzvqJIhycLp9Gav/LgpCrEr+6LrpXmAVPFoRGKCoV/N5pMXEwLkXXnhB1WRo3rx5pKdz0vFpRfhq279wqGwb+IEPpCVbq6B//YeQmeRfCeZAxuRHmR9nxiEwqyYxMfR1II6fL58JplzOmTMHP//8s4pNuOqqq8LCpOnWNOwq8eCVLeX4YLcTjhCYElKtwEst7Liipg1prCMgTRA4CQKiIMT41mB5XMYf0KTKEs/STowAAxVp+mYZYQYq6rXxA5tbnoXp20YHRJhkhlUFJ7arNhhmU3g/IsyoefHFF/HEE08ogqpINbocfvnlF0XeRFIlKgmkag5HjI7bo2FmthPP/FGOTUUair2FgSoIBlXFjDgTzsmwYFxLO2rYxWpQQShj6jZREGJK3P9cLJkTx40bh3vuuSeiL2O9i8Hrnz548CDuvvtuXU+XSsLW/KVYnPUhipyH/Z6rzWxH24yL0KH6ZbCaw1/giNYaWrNo3h84cKDf8w/mDcQyOztbkStt2rQJvXr1UrER4aAi1zQg1+nBzAMuzDnoxMIcN/aV0ZHke4s3A61SzOhexYqLM63onG6FXdIYfQcwxq8UBSHGNwCD7/jy44ktHGllRoabwWvffvutcjWEO1/eX9zcHhf2Fa3HnN2vocxd6PPtVA46V78SLaucD5vF7vN9wbyQJn7SW5PhkNUd9YA1YyJWr16tapUwDZIFzWrVqhXMZZ+0LyoEJS4NWWUe/F7oVsGMPxx2YW+pBif/kb+j3iT+kWSBCjocUsOGHlUsOCPZoqwHcYxKlCYI+IGAKAh+gBVtl7La3WeffQa6GfgiDndAmNHwpOn7rbfeUjn64fo4VBQjkv9s3LgRSak2HEhYit2Fq1HsyoVH+yeJElMZ7dYUVImvhy6ZV6mYA1OY3QrHr3PevHlYsGCBKtxE874eGq0JtCB9+umnYDrmJZdcosiVkpKSwvrscB5UDIpcGvKcGkrdAKmbbWYg0WJCZZsJCVaAZMnyTOth5xh3DqIgGFd2Ac+clLPjx49H9+7dlelU2qkRIB01LS00fZNQR4+NUfirVq1SwXVUEMgAWT2zKnLK9iCreAMKHNkodh6BW3OBikGitRKS46ohM7EJqic2RlyErAbHY0nSLloRRo4cqSvXFz/OVKiXLFmC77//HvXq1VO1S+rXr6/H7SBzEgQCQkAUhIDgM/bNPA0xUpy5/ZHgojcaekzBI17Mjb/jjjt0eTqjKfy9995TnA2c5+uvv/6X64jea4/HfbRWw5+ebLPJAhMsYQ9EPJ3sGfPBIEWWZmZBJb01zu/AgQOYNGmSsiaQXIlKo8UiRY70JiuZT8UREAWh4tgZ/k4vrS1L30r9Bd/EyVoBv/76K55++umIpOCdbpZUEJi2um3bNuUrJ0W0Uc3MXAdJqZg9oMc10JpAqmbG8CxbtkylQ1KhIU+GHud7ur0j/y4IHI+AKAgxvCfef/99xR7HgKv4+PgYRsL3pTNQjR8uxiHQvKynRlnOnTsX06ZNU1YhfqjCRVccChxowmea4SOPPBKW1MKKroG4M8OBAaz5+fno27cvunbtKs9URQGV+3SDgCgIuhFFeCdCczlfvH369NF1AaLwonL60UigwxS866+/XvH166mR7ZEuhf79+6uPVDjy9UO5fsZQUImltYaBgHpvjOmhksDiT926dVOkWpIZpHepyfxOhYAoCDG6P+g3ff7551VOP8l/pPmGAE+L/GC1adMGF198sW4+wmVlZap0MVMC9ZIa6BuiJ7+KPn4WyRo6dKjC2wiNbod169YpKw6V8CuuuALNmjUTa4IRhCdz/AcCoiDE6KYglS1NuP/617/CQvoSTTAzzY2m5JtuukkXL34qLfwgMabktttuQ6NGjaICbsZTUOlhmiMtNkZpXnIl8mawjDQLoFGZZNCoNEHASAiIgmAkaQVprvygvPbaayqQ6v7775eAKj9w5cufcQjTp09XOfp6CO5kWiNP2jRpM5I+WgLkiDWLiDFlk9kjRqoTwrnzx9iECRMmgJwjtNaRqjla5OPHYyOXGhQBURAMKrhApu3N52fE9XnnnRdIVzF57/79+xU9NasNRpowibJk0GRGRoayaBjpI+rL5mGQImtgkH8i0lj7Mt/jr6GSwP3yv//9D4wRIU0zS1mnpoanfHZF5iz3CAJeBERBiMG9QB8pSxc/+eSTho5yj5ToSJTz6quv4qKLLlKlgCPV+PHxsvoxayEc9QHCvVZydTBVky4GI5N5sdjXypUrVRAjK1TS5cCqoEYPJA33fpDxwouAKAjhxTvio/GjwjK2ZIJ76qmnhNilAhIhW+EHH3yg3AvM0Y9UY8wB53HzzTejffv2UWm69hImsarjiBEjDP9BZVl1WnxoTWD11GjINonU/pdxQ4+AKAihx1hXIzCy+sMPP1RpY9dcc42u5maUybCYEMlx1q5dq9j+InEK3LVrl7JisBYAI+WjmceCcQisOkoffjQE+vEZnD9/PlhvombNmsoS1aBBA1HWjfICiKF5ioIQQ8LmUpmrTX8uTZyRNI8bHXYy59G8/9xzz4Xdn8xCTB999BFyc3PVRzPa/dlbt25Vp27GfJAdMhoagxZ3796tXA5MOSYfSb9+/URJiAbhRtEaREGIImH6spR9+/apAk333HOPIYO+fFljOK7hS/2ll15SxYRIsRvOtnDhQkydOlURXfEEGu2NLp1HH31UWbzoSomm5mW/ZFYMrQgMNK1SpUpUuouiSW6xshZREGJF0kfXSbMmg6VYbIg899IqhgAtMSRMohWGJv5wte3bt+PNN99UJ87zzz8/Jk6cjJth1ghTBFk5MdoalQSyRpKBkfwatCSQpTOa3UbRJsNoXY8oCNEq2ROsiy9altCtVq0ahg0bplj3pFUMAcYhvPXWW6r0L6Psw4ElXQqkUmb8CAmRosEf7yv6X331FRh3QTdDNPIIeMtIL1iwQMUmUBkig6SRa2n4Klu5Tr8IiIKgX9kEfWYFBQXqY8YXzznnnBP0/mOtQ77I6UNmuijNwqFs9Fkzl57uhVhLT+UJmx9OskXSDH/llVeidu3aoYQ7Yn1TUWBAJkt2M/iV5Fekag6HAhqxRcvAukVAFATdiib4E1uzZo0yTz/++OPqRSstMAR4omXAJwMF+RIPZVu/fj0++eQTXHLJJborEhXKdbNvmt3J/MkPJ91iZFVMTk4O9bAR659KAouCzZo1S1WzJFUzCc0yMzOj0noSMaBl4NMiIArCaSGKjgv40vnss88UTfCzzz4rVeaCIFaS3zB4buDAgYriOFSNlh8W1qISwtNzLPqmqdyysmP9+vVjhh6c+4sZHJMmTVJbi7JnQGw0ulhC9exIv4EhIApCYPgZ5m4WvmHePKPeb7jhBsPMW+8TZUZI1apV1cvbYrEEfbr8SJAMiVkT9957L2rUqBH0MXTfoUeDu9yJud/NQUKCHb3OOQcmmxmwmAGT7mcf0AS9sQmTJ09WwcW0JDA4lZYUURQCglZu9gEBURB8ACkaLtm7d68y0w4fPhxt27aNhiXpYg00A2/YsEGVWE5ISAjqnBgIuXjxYlWwiEpdu3btYuqjoB0phWfjYWi7C6AdKoHjcBFcDhcS0pJhqmKHKTMZ5jMqw9QwDab46A64ZTlvuhsY98IgVVqthKo5qI+bdHYCBERBiJFtwdOHl9iHLxhpwUGA1fo+/vhjPPzww0Gv7Hj48GHlb2fKG9n2QmGhCA4Kwe3FU+iAe8ZmeBbvAQ6XAuVuwKP9fRBaDqxmINEGU6M0WK5oBkvLqoApek0KVBhZnIvBqmTxpFuL+8JutwdXANKbIHAUAVEQYmAr0ExJamB+zJjFIKbJ4AmdxYRombn11luDGvhJ1wIj2cm3QOsEUxqjXm4uD1y/ZcP90Tpo23Nh8tV/wNLKcRZY+jWA9bKmMFWL3gBG7lwSR/3000+KN6Fu3bqqpgOzOiJB+R28J0l60iMCoiDoUSpBnhNT5Ji90LBhw6gkmgkyXH51R9pjliPu3Llz0AIVmdZH1wV/ZGps0aJF1CsHWqkT7plb4f5qM5Bf7pcM/rrYbIKpRQYs17WGpWmVqI5PoDWBBZ+oJHipmrt37x5T3BgV2yRylz8IiILgD1oGvZan0GeeeUaRI7Vs2dKgq9DntKl8/fe//0VJSYlipwxGI6seSZgGDBigAtKi/mRIy8HUjXBP3gg4PAFCqMFUKwWWh7vA0ig9wL70fTstg4xNWL58ORjEyAMAK3uyyqg0QSAYCIiCEAwUdd7H5s2bMXHiRMVCF5NR8CGUD1/Ss2fPVsFjY8eOhc1mC2g0WiToWmC8ARWOWCDIcS/fB+f4FTAVOALC7q+bTYCpQyZs93SCKS36/fPcg9u2bVPBrNnZ2YoIjYHIiYmJwcFTeolZBERBMLjoNY8GTcVvHQ3iMplgNv89UIuniz179ihztQQoBl/gDBijC2f06NEBMfzRbMwANOb8M6YhWioXngpxT04JnE8sBHYXBFcwVhPMw1rAdnnz4Par096oJJCKe8mSJYp1klTNQ4YMEapmncrLKNMSBcEokjo6T7fLg4M787F5eRb2bDiCI1lFcJa54HK6YbaaEZ9oQ1r1RNQ+swoad8xEtYaV8OToJ1QVPBYVinpzdQTkycjyp556Cpdffjl69+5d4RmsWrVKuRaYitqzZ8+ojzugZuuYsAbajM0IRcCAlmRF3Jvnw1wtdrJ2GL/CmARm1nBfjhgxAp06dZLnvsJPZWzfKAqCzuXv8WjIP1iMA1vzsO6nPfhjWRbysotBRYFGgxNGtmv8Jw1WmxkJVc3Ym7IYA/oNwjkX9EB6zeTo//CEWaZOp1OxUzKS/MYbb6zQy3j//v3KCuHtIy4uLsyrCP9wnqxCOB/96c9UxhA0nqotQ5rAdlPbqE5/PB46rpvsmyxwResWqZr79u2LjIwMefZDsM+iuUtREHQsXSoGv3yzDRsW7UXW5lw4Sl1+z1aDB874QiRYUlCzQVU061YLHQY0QkadGEib8xutit9AGusDBw6ouAF/qZAZ6EiOCrqB7rrrrtgIMtMA17ztcL+9GnC4Kw786e6sVwlxz/aCKT24JFanG1YP/859RQWBBcWYGsmgV5YnDzRORg9rkzmEBwFREMKDs1+jeNwebFi8F1+99AuOZBX7da8vF6dlJuLi+zui9bn1YDouXsGX++UahnxocJcVwbVjJVzbl6MkawvgKEWcPQGmxFRYa7WArXE3WKs1AizWU57cGHMwYcIE3HnnnSEv+qQb2Tk9cH6wBp6ZW/8KnwnF3LRKcbA9ejYsrauFontD9MkMm88//1yxcvbr10+5GmOFdMsQAtLxJEVB0JFwaBrM2VeERZM3Ytm0zXCUhu5kZbGa0LZfffS5sTWq108VRcGHfaB5XHDn7IVr12o4fp8H177foZUVwsQo0eMY/ChLKgbmlKqwNemOuKa9YK3bGmZ7yt9GYkXIl19+GT169FBBZbHgWiAAWrETzteWQ1uW5QPyAVwSb4HljrNgPa9+AJ0Y/1bGJixbtkzxJnCPsSpo06ZNY2a/GV+CkVmBKAiRwf2fo2rAznWH8M3rv2LHmoNgdkKoG60HtZulY8gDHVG/TTXxT54CcI+jFOUrpqB8zbfwHN4JuJ1+iMcEU0IlWOq0gr3rNbA16ACT2aL8xKxQyD+Zglq5cmU/+jT2pVp+OZzPL4G2/nBoF2I1w3JDa1gHNQlFHGRo5x7k3pklk5WVhR9++EFlypDCe/DgwULVHGSco6k7URB0Is0D2/Pw/qgfkLO3KOwzsifbcOO4c9HorOqiJByPvga4Cw6gaPIjcO1d6yv574llSKtCfBISzrsd8Z2HYt687xUF9pgxY1ClSpWYwt6TVwbXM0ugbcoJ7X63mGAZ0RrWS5rGvIKgLDekpdY0Vfjpk08+UVUhmf5Myuaop/IO7U6Lyt5FQYiwWPmw7lp/GJ8+tjAiyoH3pVG5RjKGju6Kpp1rirvh6J7QNA+c21eiZNYrcGdvCd4L1GwF2gzCWyvy0PXcC1QJ31h7OWsF5XC+sBTa2oOhfQJpQbipDawDG4uCcAzStCYwKHb69OnKqsDCT2effbZQNYd2Nxqud1EQIiyy/dty8cWYJdi9LsQnqdOt0wTUbFIZ173UC1Xrpp7u6qj/dzp4XPs2onjaE3+6FLxEVEFauVszITujPepfPQbJVWsGqVfjdKOVuuB8/Rdoi/aGdtJ2Kyx3d4C1V93QjmPQ3hnASKrmmTNnKlIlxiY0atQo5hRWg4ov5NMWBSHkEJ98AKfDhWkvLMcvM7YeZUOM4GSODt2kSw3cNP5c2OKtkZ9MBGfgLshGwbsj4CnIDt3L0myB/dzbkdjjupjK01didWtw/ncdPFP/UBkhIWtp8bCN7g4zizdJOyECtGKyKul//vMf5OTk4Nprr1XEapIOKRtGFIQI7QG+E1d8sxVTnlsKV8AFaoK4CBPQ7+bW6HdTG1hs5iB2bJyuPKUFKP72JTh++zZ0yoEXjvhkJA8di7gzuhoHoCDN1L14D1zjVgBl/vN7+DyFJpUR90wvmJKjn3jKZ0xOciGLujGAcf78+WjSpAn69++vYhOEfTVQZI17vygIEZLdoV35+PdNs1F4uCxCMzj5sORJuPaFnmjYtrru5haOCZX//j1KZjyjUhjD0czVGqHSiLdhTskIx3C6GUPLLYXj4fnAvtAE5vJkbGX8wRAGKP69PoluQNDZRMgKSqpmxibQqjBw4ECVgitKgs4EFabpiIIQJqCPHYY0yV+98gsWf7Ep9CfUiqzPBHQf2hSD7+sIq81SkR4Mew+5Dgon3QfXlsVhW4NmsiDxgvuQ0OXKmPuQub7ZAte7q2EKhZehRhLi3ugHU2JgFTbDthF0NBDLSH/zzTeqSmm7du0UuVJ6ero+31c6wi3apiIKQgQkmrX5CD56aAEO7QpyBbsgroUFn0a+2w/V6sVWwKJz3wYUTrwJcIbXsmNt1BXJlz0Lc1LscCFwu2qlTjif/xnaquwg7l4AiTZY72wPc696gaWmBndWhuqN1gRSNc+dOxf8O+s5sK6DxCYYSowBTVYUhIDgq8DNGhRT4oxXV/5ZcEnH7fyRbXD+zW1i5tRAk3TR9DFwrJoR9jWbkioj+epxsNVpreMdEZqpubccgeulZUBWkFwNLHnevwGsN7SBKUGsB4FIzVtGmpYExiawlsOll16qrAnSoh8BURDCLGOPW1OESBuX7AvzyP4PV7lGEh6aOhj2GDHResqLkTduEFCS6z9Ygd5hMiFx4KOwd7ws0J4Md7/m8cCzaA9c764B8ssDm7/ZBFOrDFgf7AJz5dgr0BQYeCe/m7wJ69atU+RKSUlJqow0AxhPZU0gGewRhwfbij2YfdCJlXkeFDg1WM1AixQz+lezolWqFVXjTYiXmjChEl1A/YqCEBB8/t9ccLgEL14yA6WFDv9vjsAdt73TV5EnxUJzZW1A/jvDImSS1hDXfgiSLx4dC1D/Y42a2wP3iv3wfPY7tO15FaOdsFth7l0XlmEtRDkIwS6iNSE7OxuzZ8/GypUr0bNnT0WwxDLSx7dch4bP95Zj8j4Xfs13o9itatD/fzMBNhPQINGMS2vacHO9ODRIiq14pxCIKOhdioIQdEhP3eHquTvwySMLK/YCDPNc+ULoe1NrDLijfVSy0PFUxOaN0C5fOwdFUx4Ju3vBK1ZLndaodNOHERs/zNvrn8NpGjz7CuH6YgM8C/bA5Gs9En54KsfDMrwVzN1rw5wkKY2hlCUDGDds2ACWOE9JScH111+POnXq/LVv95d58OD6Ukzb70SZ5/TZI1QUmiWbMbFdAs6qHNv8K6GUW0X6FgWhIqgFcM/n/1qM5TO2GuYj0KxbTdzw2rmwxhlXu/fyz1Mh4N/5J6vbbd68GUuWLFEnIb7g4jbOQul3L0VMNqb0OkgbNT1i4wewrYN6q+bywLPuINwzNkNjIC+tbQ63IldSjd8c2qnp+qpsh7lTDVguagxTekKErD9BXb4hOuNzdODAAUyePBkbN25UDIy9evVCuSUOt64pxZQsF/yKsNKARkkmfNQuAd0ybCJHnewCURDCKAiP24NXr5mJrD8i4OOu4DpZ7fGWf/dBSpXI+nP5Uff++HFnVLXD4UB5eflff/LvPN3w//Pnveb4v3vvO3LkiMr5tlgs6NixEwbVcSJ55ccRSzU0pWYi7b4wkDNVcC+E+zat3A3PgSJou/KBgyVAsfNP1kUSeKXFw1SrEkx1KsFU2S71Q8ItnKOFn0iutHTpUmzfvh39Bw/BiweSMWG3E64KpK1S7+uZbsGkjomoZY9NkrYIiPGUQ4qCEEaJlBY58PSF01BmkPgDQlO1biXcOP5cVG8QeLqj9yTv/dP7oeaHvbS0FEVFRSgsLPzrR554voD4p/fD71UIqCS4XC7181oG2K/XZcCa995fQkKCMoXyl5ycjMTERBVoxTLLc+bMwRlnnKHyvDOyfkb5rJcjdoI3pddF2qivIjZ+GB8F/4eibCle/vglIfHR6a3X/o8jd/iNAJ8/PpfTD5swfFUZXAEIhmrBqIY2vNoyQZ4DvyUR/BtEQQg+piftsTCnFGMunAK3owLqdRjneexQaTUSMfTpTqjWMEV9jPlh5s9rpvee0r1/8oPOj733w86/8+POP/kSYR+8lj/vB907ntVqVfEAPNHzT0ZI8yMfHx+vft4POz/udrsd/PDz7/zTew3/5D3sg/3xz+MrJXr/mxYEVrJr1qyZuq58/TwUTX4oYi8mS712qHTD+xEbP0JbTIaNAgRyHR5c+2sJvj3oDng1SWZgVe9kNEkxrlszYBB00oEoCGEURO6BIjx94VRAM87Rx5zoRnLnw9CSi5TZnh9474ddUdlarX+d1L0f52M/6t6P/LEn+pP9nX3xev74wfYqCt6PvPfDHqrSyK4DfyD/P1cFcP4JZDNpiOtwOZIHPRZIJ3KvIBARBFbkunDFihLsLA3C4UcDxraIx4ON7RF6FiMCoS4HFQUhjGLJO1iMZwZMg6ciDrowzvPYoZKq2NBzZF1kNq6kTuo8ufMD7lUMvB9vnvj5O/Yjzr+f6KMeqg98oBBpjlLkjR8MrehwoF35fz95EAaNhv2swf7fK3cIAhFGYPJeB65bXYoyvyITTz7pQZkWTOmYhDjhR4ioZEVBCCP8xXllGNN/KpxlgZvhwjXtKrWTVRZDzcaxQQFc9M0LcPwyJez+bVNyxp9MirVbhEu0Mo4gEDQEXttajgd+L/sb1UEgnXdOM+O7rklIj5NgxUBwDPReURACRdCP+53lLjw3+CvkZ5f4cVdkL81slIqb3+iD9JrJkZ1ImN5cMtEAAAlrSURBVEZ3ZW9FwYTrAEd4ZWRt0gPJl4yBOTEtTCuVYQSB4CHw/OYyPL4xQBbMY6ZzVqoZs7omoWq8KAjBk5L/PYmC4D9mFb6DPvt3b5+HTUv3G6b6bIN21XDzG+chITk2yGdI+8tARefGHyssZ39v1MwWJA14GPaOlx4N0fe3B7leEIgsAuO2leGB9eX+cR+cYspdlAUhGZXjjBOvFVkJhGZ0URBCg+tJe53z7hrMfue3MI9a8eE6DGyIq57qBrMlNjR5KnGOPxahZPpT0EryKg6cH3daarZA8rVvwBJjlRz9gEgu1TkC0/Y5MHx1KUqC5D29vIYVn3ZIlBiECMtdFIQwC2DvxsMYP3yW7is5EhZ+LIeOPhtdL2kSZpQiO5xWXozi2ePhWDk19KRJiWlIvno8bHVaSXpjZMUuoweAwOo8Fy5fUYJtJcHIYtDwRms77mpoD2BGcmswEBAFIRgo+tGHy+HG2Mtm4PCeQj/uisylZosJj06/GBm1K0VmAhEc1VOSj/z3hsOTsyd07iCLDQkX3A97p8tFOYigrGXowBEocpEHoRTTD7gC7oz0BxvPS0atBOFBCBjMADsQBSFAAP293ePRMOPVFVj0+UbFGqvXRutBi561FYuit5iRXucaqnm5Dm5H8f9Gw71/458Uv8FsZgviOl+JxN43w5wQewpYMKGUviKPAJ+O7w44FBdCiQ8Fmk42YxZu+lfTODzWlBwIEn8QacmKghABCfy+cA8+G70YJfn6LflssZlx42vnoFn32hFASCdDahqc+35HybcvwbVvffBeV9Y42LtfD3uXK2FODJzCWidoyTRiHAGHW8Nr28rw5CZHhWsxDM60YELbRGRI9oIudpMoCBEQA/kQPnroJ2xdkR2B0X0bstFZ1ZX1IFayF06FirvoCIpnPAPXliWAJxATqgmmpHQk9L0L8e0uEreCb1tRrjIQAi6PhjvXlmDibhecfhjdaCtokWLCZ2clolWqlHzWi8hFQYiAJGi+XzV7ByY9sRiarzXvwzjPuAQrLn6gA7pc3ESq5B3F3eMog2PdbJT/9i3ce9YBbj+sPyYTzClVYW3QEfGdroC1VnOYzOJfDeOWlqHChADfbYcdGsZvK8e7O53I8UFLSDQD51ez4tlm8WiW8s/aKWGaugxzAgREQYjQtnCUuTDpyUVY+/3uCM3g5MM26lAdI8b2Qkp6ZEs86w4Yjxvuohy49qyDY8P3cG1dDk9p3sldD2YrTOm1Ed+yL2yNu8FSrTHM8YKp7uQqEwo6AiUuDctzXZiwy4GZ2S4UnsDwRhX5rDQzRtaPw8BMm7gVgi6FwDsUBSFwDCvUAzXtvOxi/PvG2cjNKq5QH6G4KT7Rilve6oOGbauHovuo6VOVrC4tAJkXXft+h+fwDnjKimAyW2FOToe1ZgtYap4JS5XagCUuePELUYOgLCQWEHBrwJ5SN3467MKyI25lUSD3Ufs0C87NsKJFJTPizLHBsWJEeYuCEEGpMaNh5cxtmP7qCpQW+GGyDtGc7Uk2DLi7Pbpd1lRcCyHCWLoVBAQBQcAoCIiCEGFJlZc68cPEdZj7/tqIpvWYrSb0vLIZLhjZFvGJtgijIsMLAoKAICAIRBoBURAiLQEAbqdbWRGWTd8KV3mQuEr9WBcJkVqfWxeXP9EViZXi/bhTLhUEBAFBQBCIVgREQdCJZMuKHfjxo9+x8PONKC92hm1WzFjofPEZOP/WNkhKFWrTsAEvAwkCgoAgoHMEREHQkYDKS5xYPWcHpr+6MixKQlyiVSkGZ1/aBPak2KjWqCNxy1QEAUFAENA1AqIg6Ew8jI7ftf4wvn5tJfZsyAFrNwS7WeMsqFavEgbc1Q5ndqsNs1koTYONsfQnCAgCgoDRERAFQYcSpJKQf7AEa+btxOrZO7Dvj9ygVH80mYHMhmlo378h2vdvgPQayTpcvUxJEBAEBAFBQA8IiIKgBymcZA5utwcleeXYsHivik3I2pwL+EFf+v/dasg8ozK6D22KVr3rIinNDotVco91LHqZmiAgCAgCEUdAFISIi8C3CbicbuVy2LBoL3atPYSCw6VgzIKj1AWPWwM5FUxmEywWM+LsFtgSraiUkYC6LTLQrFtt1GuZAZtdaEx9Q1uuEgQEAUFAEBAFwWB7gO4HKgXFuWUoPFKG4rxyOB1ueFweMF3RFm9FYmqcoklOSotXnAZUHKQJAoKAICAICAL+ICAKgj9oybWCgCAgCAgCgkCMICAKQowIWpYpCAgCgoAgIAj4g4AoCP6gJdcKAoKAICAICAIxgoAoCDEiaFmmICAICAKCgCDgDwKiIPiDllwrCAgCgoAgIAjECAKiIMSIoGWZgoAgIAgIAoKAPwiIguAPWnKtICAICAKCgCAQIwiIghAjgpZlCgKCgCAgCAgC/iAgCoI/aMm1goAgIAgIAoJAjCAgCkKMCFqWKQgIAoKAICAI+IOAKAj+oCXXCgKCgCAgCAgCMYKAKAgxImhZpiAgCAgCgoAg4A8CoiD4g5ZcKwgIAoKAICAIxAgCoiDEiKBlmYKAICAICAKCgD8IiILgD1pyrSAgCAgCgoAgECMIiIIQI4KWZQoCgoAgIAgIAv4gIAqCP2jJtYKAICAICAKCQIwgIApCjAhalikICAKCgCAgCPiDgCgI/qAl1woCgoAgIAgIAjGCgCgIMSJoWaYgIAgIAoKAIOAPAqIg+IOWXCsICAKCgCAgCMQIAqIgxIigZZmCgCAgCAgCgoA/CIiC4A9acq0gIAgIAoKAIBAjCIiCECOClmUKAoKAICAICAL+ICAKgj9oybWCgCAgCAgCgkCMICAKQowIWpYpCAgCgoAgIAj4g4AoCP6gJdcKAoKAICAICAIxgoAoCDEiaFmmICAICAKCgCDgDwKiIPiDllwrCAgCgoAgIAjECAKiIMSIoGWZgoAgIAgIAoKAPwiIguAPWnKtICAICAKCgCAQIwiIghAjgpZlCgKCgCAgCAgC/iAgCoI/aMm1goAgIAgIAoJAjCAgCkKMCFqWKQgIAoKAICAI+IOAKAj+oCXXCgKCgCAgCAgCMYKAKAgxImhZpiAgCAgCgoAg4A8CoiD4g5ZcKwgIAoKAICAIxAgCoiDEiKBlmYKAICAICAKCgD8IiILgD1pyrSAgCAgCgoAgECMIiIIQI4KWZQoCgoAgIAgIAv4gIAqCP2jJtYKAICAICAKCQIwg8H81fHTIOI5IMQAAAABJRU5ErkJggg==;opacity=60;" vertex="1" parent="1">
          <mxGeometry x="814.77" y="290" width="162.45" height="116.85" as="geometry" />
        </mxCell>
        <mxCell id="5aanb437-74j5P1rUgna-72" value="" style="shape=flexArrow;endArrow=classic;html=1;rounded=0;endWidth=10;endSize=4.38;strokeColor=#666666;" edge="1" parent="1">
          <mxGeometry width="50" height="50" relative="1" as="geometry">
            <mxPoint x="684" y="304" as="sourcePoint" />
            <mxPoint x="684.5" y="329" as="targetPoint" />
          </mxGeometry>
        </mxCell>
        <mxCell id="5aanb437-74j5P1rUgna-74" value="" style="shape=flexArrow;endArrow=classic;html=1;rounded=0;endWidth=10;endSize=3.93;width=11;strokeColor=#666666;" edge="1" parent="1">
          <mxGeometry width="50" height="50" relative="1" as="geometry">
            <mxPoint x="684.5" y="438" as="sourcePoint" />
            <mxPoint x="684.5" y="418" as="targetPoint" />
          </mxGeometry>
        </mxCell>
        <mxCell id="5aanb437-74j5P1rUgna-76" value="" style="html=1;shadow=0;dashed=0;align=center;verticalAlign=middle;shape=mxgraph.arrows2.arrow;dy=0.6;dx=21;notch=0;rotation=-180;strokeColor=#d6b656;fillColor=#fff2cc;" vertex="1" parent="1">
          <mxGeometry x="770" y="260" width="30" height="40" as="geometry" />
        </mxCell>
        <mxCell id="5aanb437-74j5P1rUgna-77" value="故障知识图谱FKG" style="text;html=1;strokeColor=none;fillColor=none;align=center;verticalAlign=middle;whiteSpace=wrap;rounded=0;fontColor=#808080;fontStyle=1" vertex="1" parent="1">
          <mxGeometry x="858.99" y="400" width="74.01" height="30" as="geometry" />
        </mxCell>
      </root>
    </mxGraphModel>
  </diagram>
</mxfile>
